<svg id="User" xmlns="http://www.w3.org/2000/svg" viewBox="-1066 -822 100 127.438">
  <defs>
    <style>
      .cls-1 {
        fill: #454f5e;
      }
    </style>
  </defs>
  <path id="Path_428" data-name="Path 428" class="cls-1" d="M50,321.334a50.057,50.057,0,0,0-50,50A4.27,4.27,0,0,0,4.269,375.6H95.731A4.27,4.27,0,0,0,100,371.334,50.057,50.057,0,0,0,50,321.334ZM8.757,367.064a41.463,41.463,0,0,1,82.486,0Z" transform="translate(-1066 -1070.165)"/>
  <path id="Path_429" data-name="Path 429" class="cls-1" d="M107.468,64.267A27.135,27.135,0,1,0,134.6,91.4,27.165,27.165,0,0,0,107.468,64.267Zm0,45.731a18.6,18.6,0,1,1,18.6-18.6A18.617,18.617,0,0,1,107.468,110Z" transform="translate(-1123.469 -886.267)"/>
</svg>
