<svg id="Confirm" xmlns="http://www.w3.org/2000/svg" viewBox="-1352 -799 100 100">
  <defs>
    <style>
      .cls-1 {
        fill: #454f5e;
      }
    </style>
  </defs>
  <path id="Path_405" data-name="Path 405" class="cls-1" d="M97.07,0H2.93A2.93,2.93,0,0,0,0,2.93V78.242a2.93,2.93,0,0,0,2.93,2.93h15.9v15.9a2.93,2.93,0,0,0,5,2.071L41.8,81.172H97.07a2.93,2.93,0,0,0,2.93-2.93V2.93A2.93,2.93,0,0,0,97.07,0Zm-2.93,75.313H40.586a2.929,2.929,0,0,0-2.071.858L24.688,90V78.242a2.93,2.93,0,0,0-2.93-2.93H5.859V5.859H94.141Z" transform="translate(-1352 -799)"/>
  <path id="Path_406" data-name="Path 406" class="cls-1" d="M149.6,193.657a2.933,2.933,0,1,0,.857,2.072A2.955,2.955,0,0,0,149.6,193.657Z" transform="translate(-1468.358 -954.144)"/>
  <path id="Path_407" data-name="Path 407" class="cls-1" d="M246,193.657a2.932,2.932,0,1,0,.858,2.072A2.954,2.954,0,0,0,246,193.657Z" transform="translate(-1545.93 -954.144)"/>
  <path id="Path_408" data-name="Path 408" class="cls-1" d="M342.4,193.657a2.933,2.933,0,1,0,.857,2.072A2.955,2.955,0,0,0,342.4,193.657Z" transform="translate(-1623.502 -954.144)"/>
</svg>
