<svg xmlns="http://www.w3.org/2000/svg" viewBox="-2292 -815 90 90">
  <defs>
    <style>
      .cls-1 {
        fill: #454f5e;
      }
    </style>
  </defs>
  <g id="Dashboard" transform="translate(-7 -416)">
    <path id="Path_374" data-name="Path 374" class="cls-1" d="M82.09,0H7.91A7.919,7.919,0,0,0,0,7.91V82.09A7.919,7.919,0,0,0,7.91,90H82.09A7.919,7.919,0,0,0,90,82.09V7.91A7.919,7.919,0,0,0,82.09,0ZM5.273,7.91A2.64,2.64,0,0,1,7.91,5.273H63.633v15.82H5.273ZM84.727,82.09a2.64,2.64,0,0,1-2.637,2.637H7.91A2.64,2.64,0,0,1,5.273,82.09V26.367H84.727Zm0-61H68.906V5.273H82.09A2.64,2.64,0,0,1,84.727,7.91Z" transform="translate(-2285 -399)"/>
    <path id="Path_375" data-name="Path 375" class="cls-1" d="M67.91,60H62.637a2.637,2.637,0,0,0,0,5.273H67.91a2.637,2.637,0,0,0,0-5.273Z" transform="translate(-2334.453 -448.453)"/>
    <path id="Path_376" data-name="Path 376" class="cls-1" d="M158.91,60h-5.273a2.637,2.637,0,0,0,0,5.273h5.273a2.637,2.637,0,0,0,0-5.273Z" transform="translate(-2409.457 -448.453)"/>
    <path id="Path_377" data-name="Path 377" class="cls-1" d="M248.91,60h-5.273a2.637,2.637,0,0,0,0,5.273h5.273a2.637,2.637,0,0,0,0-5.273Z" transform="translate(-2483.637 -448.453)"/>
    <path id="Path_378" data-name="Path 378" class="cls-1" d="M126.27,248.09h-2.637V213.637A2.637,2.637,0,0,0,121,211H110.449a2.637,2.637,0,0,0-2.637,2.637V248.09h-5.449V224.184a2.637,2.637,0,0,0-2.637-2.637H89.18a2.637,2.637,0,0,0-2.637,2.637V248.09H81.27V234.73a2.637,2.637,0,0,0-2.637-2.637H67.91a2.637,2.637,0,0,0-2.637,2.637V248.09H62.637a2.637,2.637,0,0,0,0,5.273H126.27a2.637,2.637,0,0,0,0-5.273ZM76,248.09H70.547V237.367H76Zm21.094,0H91.816V226.82H97.09Zm21.27,0h-5.273V216.273h5.273Z" transform="translate(-2334.453 -572.91)"/>
  </g>
</svg>
