<svg xmlns="http://www.w3.org/2000/svg" viewBox="-3085 -1173 201.143 72">
  <defs>
    <style>
      .cls-1 {
        fill: #fff;
      }
    </style>
  </defs>
  <g id="Logo_SDP" data-name="Logo SDP" transform="translate(-517 -709)">
    <path id="Path_1" data-name="Path 1" class="cls-1" d="M24.714,44.614A23.462,23.462,0,0,0,35,47.129c4.229,0,6.514-1.714,6.514-4.343,0-2.514-1.943-3.886-6.857-5.6C27.8,34.786,23.343,31.129,23.343,25.3c0-6.857,5.943-12,15.543-12A24.722,24.722,0,0,1,49.4,15.357l-2.057,7.2a19.237,19.237,0,0,0-8.571-1.943c-4,0-5.943,1.829-5.943,3.886,0,2.514,2.286,3.657,7.657,5.6,7.2,2.629,10.629,6.286,10.629,11.886,0,6.743-5.257,12.457-16.457,12.457A27.192,27.192,0,0,1,23,51.929Z" transform="translate(-2564.714 -462.1)"/>
    <path id="Path_2" data-name="Path 2" class="cls-1" d="M76.2,14.514a47.2,47.2,0,0,1,9.6-.914c6.057,0,10.057,1.371,13.029,4.229,3.314,3.086,5.371,8,5.371,15.086,0,7.657-2.171,12.914-5.257,16.229-3.314,3.543-8.457,5.143-14.629,5.143a57.2,57.2,0,0,1-8.114-.571Zm7.086,32.571a8.188,8.188,0,0,0,2.514.229c6.514.114,10.857-4.457,10.857-14.057,0-8.343-3.886-12.686-10.057-12.686a14.657,14.657,0,0,0-3.2.343V47.086Z" transform="translate(-2557.114 -462.057)"/>
    <path id="Path_3" data-name="Path 3" class="cls-1" d="M131.914,14.6a72.906,72.906,0,0,1,11.886-.8c5.486,0,9.371,1.029,11.886,3.2a11.8,11.8,0,0,1,4.114,9.257,12.942,12.942,0,0,1-3.543,9.486c-2.971,2.857-7.429,4.229-12.686,4.229a20.986,20.986,0,0,1-2.971-.229V54.029h-8.8V14.6ZM140.6,32.771a10.738,10.738,0,0,0,2.971.229c4.686,0,7.543-2.4,7.543-6.514,0-3.657-2.514-5.829-6.971-5.829A11.889,11.889,0,0,0,140.6,21Z" transform="translate(-2549.171 -462.029)"/>
    <path id="Path_4" data-name="Path 4" class="cls-1" d="M160.571,0a43.212,43.212,0,0,0-30.057,11.771,43.968,43.968,0,0,0-59.886,0A43.212,43.212,0,0,0,40.571,0C18.171,0,0,16.114,0,36S18.171,72,40.571,72A43.212,43.212,0,0,0,70.629,60.229,42.723,42.723,0,0,0,100.571,72a43.212,43.212,0,0,0,30.057-11.771A42.723,42.723,0,0,0,160.571,72c22.4,0,40.571-16.114,40.571-36S182.971,0,160.571,0ZM42.171,65.143C24.343,65.143,10.057,52.114,10.057,36S24.343,6.857,42.171,6.857A33.057,33.057,0,0,1,66.286,16.8a32.466,32.466,0,0,0,0,38.4A33.709,33.709,0,0,1,42.171,65.143ZM126.286,55.2a33.709,33.709,0,0,1-24.114,9.943A33.33,33.33,0,0,1,76.229,53.257a27.367,27.367,0,0,1-4.114-6.743,25.991,25.991,0,0,1,0-20.8,27.367,27.367,0,0,1,4.114-6.743A34.013,34.013,0,0,1,126.286,16.8a32.466,32.466,0,0,0,0,38.4Zm35.886,9.943a33.33,33.33,0,0,1-25.943-11.886,27.366,27.366,0,0,1-4.114-6.743,25.991,25.991,0,0,1,0-20.8,27.366,27.366,0,0,1,4.114-6.743A32.8,32.8,0,0,1,162.171,6.857c17.714,0,32.114,13.029,32.114,29.143S179.886,65.143,162.171,65.143Z" transform="translate(-2568 -464)"/>
  </g>
</svg>
