<svg xmlns="http://www.w3.org/2000/svg" viewBox="-2660 -843 100 100">
  <defs>
    <style>
      .cls-1 {
        fill: #00B94D;
      }
    </style>
  </defs>
  <g id="Remisi_Online" data-name="Remisi Online" transform="translate(-191 -53)">
    <path id="Path_345" data-name="Path 345" class="cls-1" d="M308.843,418.7a2.93,2.93,0,0,0-2.9-2.49H266.886a2.93,2.93,0,0,0-2.9,2.49l-1.953,12.849a2.931,2.931,0,0,0,2.9,3.37H307.9a2.931,2.931,0,0,0,2.9-3.37Zm-40.5,10.36,1.063-6.99h34.025l1.062,6.99Z" transform="translate(-2679.83 -1124.916)"/>
    <path id="Path_346" data-name="Path 346" class="cls-1" d="M65.024,50.179l-2.013,2.013a2.929,2.929,0,0,0-.394,3.653l5.847,9.115A2.929,2.929,0,0,0,73,65.45L99.141,39.31a2.931,2.931,0,0,0-.49-4.537l-9.114-5.847a2.929,2.929,0,0,0-3.653.394l-2.013,2.013-15.2-15.2,2.013-2.013a2.929,2.929,0,0,0,.394-3.653L65.227,1.347A2.93,2.93,0,0,0,60.69.858L34.55,27a2.931,2.931,0,0,0,.49,4.537l9.114,5.847a2.929,2.929,0,0,0,3.653-.394l2.013-2.013,2.19,2.19L3.168,82.749A9.965,9.965,0,1,0,17.252,96.833L62.834,47.989ZM88.359,35.131l4.067,2.609L71.431,58.734l-2.609-4.067Zm-8.631.345L69.167,46.036l-15.2-15.2,10.56-10.561Zm-34.395-4.3-4.067-2.609L62.26,7.574l2.609,4.067ZM12.969,92.835a4.106,4.106,0,1,1-5.8-5.8l48.99-45.721,2.532,2.533Z" transform="translate(-2469 -790)"/>
  </g>
</svg>
