<svg xmlns="http://www.w3.org/2000/svg" viewBox="-2814 -822.657 52.734 100">
  <defs>
    <style>
      .cls-1 {
        fill: #D24343;
      }
    </style>
  </defs>
  <g id="Sidang_TPP" data-name="Sidang TPP" transform="translate(0 -276)">
    <path id="Path_354" data-name="Path 354" class="cls-1" d="M158.905,41.725a22.47,22.47,0,0,0,10.922-19.219s0,0,0,0,0,0,0,0,0-.024,0-.036a22.461,22.461,0,0,0-44.922,0c0,.012,0,.024,0,.036s0,0,0,0,0,0,0,0a22.47,22.47,0,0,0,10.922,19.219A26.4,26.4,0,0,0,121,65.43V97.07a2.93,2.93,0,0,0,2.93,2.93H170.8a2.93,2.93,0,0,0,2.93-2.93V65.43A26.4,26.4,0,0,0,158.905,41.725ZM147.367,5.859a16.63,16.63,0,0,1,16.271,13.3c-3.853-.677-10.166-2.582-13.86-7.935a2.93,2.93,0,0,0-4.823,0c-3.669,5.316-10,7.233-13.858,7.922A16.63,16.63,0,0,1,147.367,5.859ZM130.98,25.111c4.024-.573,11.126-2.321,16.388-7.647,5.262,5.326,12.364,7.074,16.387,7.647a16.6,16.6,0,0,1-32.775,0Zm8.766,35.942,7.621-13.2,7.621,13.2Zm9.281,5.859v9.978h-3.32V66.912Zm18.848,27.229H126.859V65.43a20.544,20.544,0,0,1,15-19.755l-9.724,16.843a2.93,2.93,0,0,0,2.537,4.395h5.176V79.819a2.93,2.93,0,0,0,2.93,2.93h9.18a2.93,2.93,0,0,0,2.93-2.93V66.912h5.176a2.93,2.93,0,0,0,2.537-4.395l-9.724-16.843a20.544,20.544,0,0,1,15,19.755Z" transform="translate(-2935 -546.657)"/>
  </g>
</svg>
