<svg xmlns="http://www.w3.org/2000/svg" viewBox="-2404 -1197 120 120">
  <defs>
    <style>
      .cls-1 {
        fill: #B400D5;
      }
    </style>
  </defs>
  <g id="Dashboard_Eksekutif" data-name="Dashboard Eksekutif" transform="translate(-485 -709)">
    <path id="Path_374" data-name="Path 374" class="cls-1" d="M109.453,0H10.547A10.559,10.559,0,0,0,0,10.547v98.906A10.559,10.559,0,0,0,10.547,120h98.906A10.559,10.559,0,0,0,120,109.453V10.547A10.559,10.559,0,0,0,109.453,0ZM7.031,10.547a3.52,3.52,0,0,1,3.516-3.516h74.3V28.125H7.031Zm105.938,98.906a3.52,3.52,0,0,1-3.516,3.516H10.547a3.52,3.52,0,0,1-3.516-3.516v-74.3H112.969Zm0-81.328H91.875V7.031h17.578a3.52,3.52,0,0,1,3.516,3.516Z" transform="translate(-1919 -488)"/>
    <path id="Path_375" data-name="Path 375" class="cls-1" d="M70.547,60H63.516a3.516,3.516,0,0,0,0,7.031h7.031a3.516,3.516,0,0,0,0-7.031Z" transform="translate(-1964.938 -533.938)"/>
    <path id="Path_376" data-name="Path 376" class="cls-1" d="M161.547,60h-7.031a3.516,3.516,0,0,0,0,7.031h7.031a3.516,3.516,0,0,0,0-7.031Z" transform="translate(-2034.609 -533.938)"/>
    <path id="Path_377" data-name="Path 377" class="cls-1" d="M251.547,60h-7.031a3.516,3.516,0,0,0,0,7.031h7.031a3.516,3.516,0,0,0,0-7.031Z" transform="translate(-2103.516 -533.938)"/>
    <path id="Path_378" data-name="Path 378" class="cls-1" d="M148.359,260.453h-3.516V214.516A3.516,3.516,0,0,0,141.328,211H127.266a3.516,3.516,0,0,0-3.516,3.516v45.938h-7.266V228.578a3.516,3.516,0,0,0-3.516-3.516H98.906a3.516,3.516,0,0,0-3.516,3.516v31.875H88.359V242.641a3.516,3.516,0,0,0-3.516-3.516h-14.3a3.516,3.516,0,0,0-3.516,3.516v17.813H63.516a3.516,3.516,0,0,0,0,7.031h84.844a3.516,3.516,0,0,0,0-7.031Zm-67.031,0H74.063v-14.3h7.266Zm28.125,0h-7.031V232.094h7.031Zm28.359,0h-7.031V218.031h7.031Z" transform="translate(-1964.938 -649.547)"/>
  </g>
</svg>
