<svg xmlns="http://www.w3.org/2000/svg" viewBox="-1937 -818.91 95 93.887">
  <defs>
    <style>
      .cls-1 {
        fill: #BEA233;
      }
    </style>
  </defs>
  <g id="Integrasi_Online" data-name="Integrasi Online" transform="translate(-226 -356)">
    <circle id="Ellipse_1" data-name="Ellipse 1" class="cls-1" cx="3.711" cy="3.711" r="3.711" transform="translate(-1667.211 -447.788)"/>
    <path id="Path_353" data-name="Path 353" class="cls-1" d="M92.216,81.672H87.392V74.806a2.783,2.783,0,0,0-2.783-2.783H82.838V49.2h.928a2.783,2.783,0,0,0,2.783-2.783V39.552h5.668A2.783,2.783,0,0,0,93.8,34.482L49.085,3.5a2.783,2.783,0,0,0-3.17,0L1.2,34.482a2.783,2.783,0,0,0,1.585,5.071H8.451v6.865A2.783,2.783,0,0,0,11.234,49.2h.928V72.023H10.39a2.783,2.783,0,0,0-2.783,2.783v6.865H2.783A2.783,2.783,0,0,0,0,84.455V94.1a2.783,2.783,0,0,0,2.783,2.783H92.216A2.783,2.783,0,0,0,95,94.1V84.455A2.783,2.783,0,0,0,92.216,81.672ZM11.686,33.986,47.5,9.169,83.313,33.986Zm2.331,9.648V39.552H27.005v4.082ZM23.294,49.2V72.023H17.728V49.2ZM81.826,77.589v4.082H13.174V77.589ZM38.222,49.2h.928V72.023H28.861V49.2h.928a2.783,2.783,0,0,0,2.783-2.783V39.552h2.867v6.865A2.783,2.783,0,0,0,38.222,49.2Zm2.783-5.566V39.552H53.994v4.082ZM50.283,49.2V72.023H44.716V49.2Zm14.928,0h.928V72.023H55.849V49.2h.928a2.783,2.783,0,0,0,2.783-2.783V39.552h2.868v6.865A2.783,2.783,0,0,0,65.211,49.2Zm2.783-5.566V39.552H80.982v4.082ZM77.271,49.2V72.023H71.705V49.2ZM89.433,91.32H5.566V87.238H89.433Z" transform="translate(-1711 -465.909)"/>
  </g>
</svg>
