<svg id="Success" xmlns="http://www.w3.org/2000/svg" viewBox="-1211 -808.124 100 100.124">
  <defs>
    <style>
      .cls-1 {
        fill: #454f5e;
      }
    </style>
  </defs>
  <g id="Group_343" data-name="Group 343">
    <path id="Path_403" data-name="Path 403" class="cls-1" d="M50.083,0a50.062,50.062,0,1,0,50,50.062A50.178,50.178,0,0,0,50.083,0Zm0,93.865a43.8,43.8,0,1,1,43.75-43.8A43.906,43.906,0,0,1,50.083,93.865Z" transform="translate(-1211.083 -808.124)"/>
    <path id="Path_404" data-name="Path 404" class="cls-1" d="M78.478,47.2,52.54,73.165,39.415,60.024A3.1,3.1,0,1,0,35.04,64.4L50.353,79.735a3.018,3.018,0,0,0,4.375,0L82.853,51.576A3.1,3.1,0,0,0,78.478,47.2Z" transform="translate(-1219.791 -819.963)"/>
  </g>
</svg>
