<svg xmlns="http://www.w3.org/2000/svg" viewBox="-2597.5 -1197.113 100.781 120">
  <defs>
    <style>
      .cls-1 {
        fill: #D24343;
      }
    </style>
  </defs>
  <g id="User_UPT" data-name="User UPT" transform="translate(-487 -709)">
    <path id="Path_373" data-name="Path 373" class="cls-1" d="M138.266,84.375a3.516,3.516,0,0,0-3.516,3.516v3.516h-6.094V19.219h4.922a3.516,3.516,0,0,0,3.516-3.516V3.516A3.516,3.516,0,0,0,133.578,0H49.2a3.516,3.516,0,0,0-3.516,3.516V15.7A3.516,3.516,0,0,0,49.2,19.219h4.922V91.406H48.031V87.891a3.516,3.516,0,0,0-7.031,0v28.594a3.516,3.516,0,0,0,7.031,0V98.438h6.094v18.047A3.516,3.516,0,0,0,57.641,120h67.5a3.516,3.516,0,0,0,3.516-3.516V98.438h6.094v18.047a3.516,3.516,0,0,0,7.031,0V87.891A3.516,3.516,0,0,0,138.266,84.375ZM64.438,112.969H61.156V98.438h3.281Zm23.438,0H71.469V98.438H87.875Zm23.437,0H94.906V98.438h16.406Zm10.313,0h-3.281V98.438h3.281Zm0-21.563h-3.281V87.891a3.516,3.516,0,0,0-7.031,0v3.516H94.906V87.891a3.516,3.516,0,0,0-7.031,0v3.516H71.469V87.891a3.516,3.516,0,0,0-7.031,0v3.516H61.156V19.219h60.469ZM52.719,12.188V7.031h77.344v5.156Z" transform="translate(-2151.5 -488.113)"/>
    <path id="Path_372" data-name="Path 372" class="cls-1" d="M170.516,163.719H205.2a3.516,3.516,0,0,0,3.516-3.516V125.516A3.516,3.516,0,0,0,205.2,122H170.516A3.516,3.516,0,0,0,167,125.516V160.2A3.516,3.516,0,0,0,170.516,163.719Zm20.859-34.687h10.313v10.313H191.375Zm0,17.344h10.313v10.312H191.375Zm-17.344-17.344h10.313v10.313H174.031Zm0,17.344h10.313v10.312H174.031Z" transform="translate(-2247.969 -581.519)"/>
  </g>
</svg>
