<svg xmlns="http://www.w3.org/2000/svg" viewBox="-2967 -559 68.359 100">
  <defs>
    <style>
      .cls-1 {
        fill: #026DD5;
      }
    </style>
  </defs>
  <g id="User_Kanwil" data-name="User Kanwil" transform="translate(-3492 -1189)">
    <path id="Path_450" data-name="Path 450" class="cls-1" d="M138.617,41.211a2.93,2.93,0,0,0,2.93-2.93V31.445h4.883a2.93,2.93,0,0,0,2.93-2.93V12.891a2.93,2.93,0,0,0-2.93-2.93H97.786v-4.1h6.264a2.93,2.93,0,0,0,0-5.859H94.856a2.93,2.93,0,0,0-2.93,2.93V9.961h-8A2.93,2.93,0,0,0,81,12.891V28.516a2.93,2.93,0,0,0,2.93,2.93h4.883v6.836a2.93,2.93,0,0,0,2.93,2.93h4.883v33.4H91.742a2.93,2.93,0,0,0-2.93,2.93v4.883H83.93A2.93,2.93,0,0,0,81,85.352V97.07A2.93,2.93,0,0,0,83.93,100h62.5a2.93,2.93,0,0,0,2.93-2.93V85.352a2.93,2.93,0,0,0-2.93-2.93h-4.883V77.539a2.93,2.93,0,0,0-2.93-2.93h-4.883v-33.4ZM86.859,25.586V15.82H143.5v9.766Zm48.828,54.883v4.883a2.93,2.93,0,0,0,2.93,2.93H143.5v5.859H86.859V88.281h4.883a2.93,2.93,0,0,0,2.93-2.93V80.469Zm-33.2-5.859v-33.4h25.391v33.4ZM94.672,35.352V31.445h41.016v3.906Z" transform="translate(444 630)"/>
    <path id="Path_451" data-name="Path 451" class="cls-1" d="M268.93,241a2.93,2.93,0,0,0-2.93,2.93v15.82a2.93,2.93,0,0,0,5.859,0V243.93A2.93,2.93,0,0,0,268.93,241Z" transform="translate(295.133 436.07)"/>
    <path id="Path_452" data-name="Path 452" class="cls-1" d="M218.93,241a2.93,2.93,0,0,0-2.93,2.93v15.82a2.93,2.93,0,0,0,5.859,0V243.93A2.93,2.93,0,0,0,218.93,241Z" transform="translate(335.367 436.07)"/>
  </g>
</svg>
