<svg xmlns="http://www.w3.org/2000/svg" viewBox="-2794 -1203 121.423 120">
  <defs>
    <style>
      .cls-1 {
        fill: #00B94D;
      }
    </style>
  </defs>
  <path id="User_Pusat" data-name="User Pusat" class="cls-1" d="M117.865,103.553H111.7V94.778a3.557,3.557,0,0,0-3.557-3.557h-2.264V62.051h1.186a3.557,3.557,0,0,0,3.557-3.557V49.719h7.244a3.557,3.557,0,0,0,2.026-6.481L62.737,3.633a3.557,3.557,0,0,0-4.052,0L1.531,43.238a3.557,3.557,0,0,0,2.026,6.481H10.8v8.775a3.557,3.557,0,0,0,3.557,3.557h1.186v29.17H13.28a3.557,3.557,0,0,0-3.557,3.557v8.775H3.557A3.557,3.557,0,0,0,0,107.11v12.332A3.557,3.557,0,0,0,3.557,123H117.865a3.557,3.557,0,0,0,3.557-3.557V107.11A3.557,3.557,0,0,0,117.865,103.553ZM14.936,42.6,60.711,10.885,106.486,42.6Zm2.979,12.332V49.719h16.6v5.217Zm11.858,7.115v29.17H22.659V62.051Zm74.811,36.285v5.217H16.838V98.335ZM48.853,62.051h1.186v29.17H36.888V62.051h1.186a3.557,3.557,0,0,0,3.557-3.557V49.719H45.3v8.775A3.557,3.557,0,0,0,48.853,62.051Zm3.557-7.115V49.719h16.6v5.217Zm11.858,7.115v29.17H57.154V62.051Zm19.08,0h1.186v29.17H71.383V62.051h1.186a3.557,3.557,0,0,0,3.557-3.557V49.719h3.665v8.775A3.557,3.557,0,0,0,83.349,62.051Zm3.557-7.115V49.719h16.6v5.217Zm11.858,7.115v29.17H91.649V62.051Zm15.544,53.834H7.114v-5.217H114.308Z" transform="translate(-2794 -1206)"/>
</svg>
