<svg xmlns="http://www.w3.org/2000/svg" viewBox="-2453 -823.236 72.266 100">
  <defs>
    <style>
      .cls-1 {
        fill: #026DD5;
      }
    </style>
  </defs>
  <g id="Verifikasi_Usulan" data-name="Verifikasi Usulan" transform="translate(0 -276)">
    <path id="Path_356" data-name="Path 356" class="cls-1" d="M140.336,0H73.93A2.93,2.93,0,0,0,71,2.93V81.055a2.93,2.93,0,0,0,2.93,2.93H96.391V97.07a2.93,2.93,0,0,0,4.24,2.621l6.5-3.251,6.5,3.251a2.93,2.93,0,0,0,4.24-2.621V83.984h22.461a2.93,2.93,0,0,0,2.93-2.93V2.93A2.93,2.93,0,0,0,140.336,0ZM98.851,60.742H104.2V66.1A8.758,8.758,0,0,1,98.851,60.742Zm0-5.859a8.831,8.831,0,0,1,5.355-5.355v5.355ZM112.016,92.33l-3.573-1.786a2.93,2.93,0,0,0-2.62,0L102.25,92.33V71.625a14.672,14.672,0,0,0,9.766,0ZM110.062,66.1V60.742h5.352A8.756,8.756,0,0,1,110.062,66.1Zm0-11.215V49.527a8.831,8.831,0,0,1,5.355,5.355Zm27.344,23.242H117.875V67.767a14.649,14.649,0,1,0-21.484,0V78.125H76.859V5.859h60.547Z" transform="translate(-2524 -547.236)"/>
    <path id="Path_357" data-name="Path 357" class="cls-1" d="M183.93,65.859h23.437a2.93,2.93,0,1,0,0-5.859H183.93a2.93,2.93,0,1,0,0,5.859Z" transform="translate(-2612.516 -595.517)"/>
    <path id="Path_355" data-name="Path 355" class="cls-1" d="M133.93,135.859H176.9a2.93,2.93,0,0,0,0-5.859H133.93a2.93,2.93,0,0,0,0,5.859Z" transform="translate(-2572.281 -651.845)"/>
    <path id="Path_358" data-name="Path 358" class="cls-1" d="M133.93,185.859H176.9a2.93,2.93,0,0,0,0-5.859H133.93a2.93,2.93,0,1,0,0,5.859Z" transform="translate(-2572.281 -692.08)"/>
  </g>
</svg>
