<svg xmlns="http://www.w3.org/2000/svg" viewBox="-1564 -833.5 150 125.484">
  <defs>
    <style>
      .cls-1 {
        fill: #454f5e;
      }
    </style>
  </defs>
  <g id="Logo_DitjenPAS" data-name="Logo DitjenPAS" transform="translate(-209 -33)">
    <path id="Path_409" data-name="Path 409" class="cls-1" d="M209,169.417a3.832,3.832,0,0,1,3.821,3.821h2.028v9.112h-6.5v1.411h7.731l.147-13.257a3.512,3.512,0,0,1,1.117-.735V188.7h1.411V169.446h.265V188.7h1.411V169.77a4.089,4.089,0,0,1,1.117.735l.147,13.257h7.731V182.35h-6.5v-9.112h2.028a3.821,3.821,0,1,1,7.642,0h1.411a5.234,5.234,0,0,0-4.556-5.173,5.214,5.214,0,0,0-5.2-4.732h-.147a5.226,5.226,0,0,0-10.406,0h-.147a5.257,5.257,0,0,0-5.2,4.732,5.234,5.234,0,0,0-4.556,5.173h1.411A3.807,3.807,0,0,1,209,169.417Zm15.226-4.674a3.838,3.838,0,0,1,3.792,3.351,5.228,5.228,0,0,0-4.174,3.5,5.2,5.2,0,0,0-3.41-3.322A3.814,3.814,0,0,1,224.229,164.743Zm-5.35-4.732a3.819,3.819,0,0,1,3.792,3.557,5.223,5.223,0,0,0-3.645,4.468H218.7a5.223,5.223,0,0,0-3.645-4.468A3.867,3.867,0,0,1,218.879,160.011Zm-5.35,4.732a3.814,3.814,0,0,1,3.792,3.527,5.326,5.326,0,0,0-3.41,3.322,5.27,5.27,0,0,0-4.174-3.5A3.861,3.861,0,0,1,213.529,164.743Z" transform="translate(-1498.864 -912.305)"/>
    <path id="Path_410" data-name="Path 410" class="cls-1" d="M143.869,64.773a13.341,13.341,0,0,0-2.087,2.44,44.381,44.381,0,0,0,1.323-5.438c.235-.265.47-.558.705-.852a9.255,9.255,0,0,0,3.645-3.233c1.352-1.822,2.352-5.526,2.44-8.26-.911,2.058-3.028,2.763-4.35,4.556a12.037,12.037,0,0,0-2,4.233,41.414,41.414,0,0,0,.088-6.614c.147-.323.323-.676.47-1a8.338,8.338,0,0,0,2.557-3.88c.794-2.028.794-5.791.206-8.436-.323,2.175-2.087,3.292-2.881,5.291a11.418,11.418,0,0,0-.794,4.056,48.855,48.855,0,0,0-1.352-6c.088-.382.147-.735.206-1.117a7.706,7.706,0,0,0,1.44-4.174c.235-2.087-.676-5.644-1.911-8.054.235,2.116-1.146,3.527-1.382,5.585a11.708,11.708,0,0,0,.118,3.38,49.231,49.231,0,0,0-2.293-4.909c0-.412.029-.794.029-1.205A7.189,7.189,0,0,0,138.754,27c-.118-2-1.617-5.32-3.175-7.466.588,2-.529,3.5-.411,5.467a9.752,9.752,0,0,0,2.381,6.026c0,.118-.029.235-.029.353-1.5-2.675-3.292-5.115-4.909-7.7a17.813,17.813,0,0,0-3.263-5.761,20.212,20.212,0,0,0-8.407-5.614c2.146,1.793,2.969,4.909,4.85,7.2,2.293,2.822,4.879,4.556,6.79,4.791l.235.294h0a55.248,55.248,0,0,1,4.439,7.26l-.882-.617a9.864,9.864,0,0,0-3.233-5c-1.5-1.382-3.469-1.822-4.674-3.439a17.282,17.282,0,0,0,1.94,4.2c-.088,2.058-1.529,3.615-1.881,5.7a9.967,9.967,0,0,0,1.293,7.143c-.088.323-.176.647-.265.941a54.745,54.745,0,0,0-4.027-10.229c.029-.588.029-1.146.029-1.734a7.651,7.651,0,0,0,.735-4.468c-.118-2.175-1.734-5.732-3.41-8.025.647,2.146-.558,3.762-.441,5.908a10.58,10.58,0,0,0,2.557,6.5,6.2,6.2,0,0,1-.059.764,65.064,65.064,0,0,0-6.408-9.7,23.15,23.15,0,0,0-4.262-6.937,23.375,23.375,0,0,0-10.2-6.026c2.616,2,3.909,5.761,6.32,8.407,2.91,3.233,6.055,5.115,8.26,5.173,0,0,1.617,2.44,3.233,4.909a14.708,14.708,0,0,0-1.617-1.734c-1.617-1.47-3.733-1.969-5.026-3.7a16.043,16.043,0,0,0,4.174,7,10.969,10.969,0,0,0,4.409,2.7c.441.323.852.647,1.293.941a53.505,53.505,0,0,1,3.821,9.965c-.176-.147-.382-.323-.559-.5a9.751,9.751,0,0,0-2.557-6.055c-1.44-1.7-3.615-2.41-4.644-4.38.265,2.587,1.146,5.82,2.939,7.819a10.287,10.287,0,0,0,4.2,3.263c.294.294.588.558.882.823a48.3,48.3,0,0,1,1.44,11.17c-.206-.294-.412-.588-.647-.882a8.9,8.9,0,0,0-.735-6.672c-1-2.058-3.145-3.292-3.586-5.526a16.336,16.336,0,0,0-.412,4.2,5.885,5.885,0,0,0-.118-.705c-.705,2.263-3.41,3.233-4.762,5.262-1.646,2.469-2.087,5.144-1.323,7.143a4.522,4.522,0,0,1-.353.382,50.538,50.538,0,0,0-.735-9.406c.206-.47.412-.97.588-1.47a9.672,9.672,0,0,0,2.734-4.674c.705-2.352.206-6.408-.941-9.112-.088,2.41-2.2,3.968-2.91,6.29a11.16,11.16,0,0,0-.47,4.409,56.41,56.41,0,0,0-1.822-5.732c.088-.5.147-1,.206-1.5a9.957,9.957,0,0,0,1.44-5.056c.147-2.44-1.117-6.379-2.645-8.906.412,2.41-1.117,4.292-1.264,6.672a12.246,12.246,0,0,0,.529,4.615c-.882-1.911-1.881-3.792-2.939-5.644-.059-.412-.118-.823-.176-1.264a10.3,10.3,0,0,0-.029-5.144c-.47-2.381-2.587-6.055-4.556-8.289.97,2.293.118,4.35.588,6.7a14.334,14.334,0,0,0,.911,2.939c-.97-1.323-1.969-2.645-3.028-3.909-.118-.294-.235-.617-.353-.941a11.834,11.834,0,0,0-1.235-4.938,26.655,26.655,0,0,0-5.938-7.525c1.382,2.087,1.117,4.145,2.087,6.379a16.459,16.459,0,0,0,1.323,2.469c-1.382-1.382-2.851-2.734-4.35-4a18.268,18.268,0,0,0-4.85-5.262A26.089,26.089,0,0,0,80.289-.424c2.7,1.411,4.321,4.409,6.849,6.408,3.116,2.41,6.32,3.7,8.466,3.557a74.761,74.761,0,0,1,7.554,8c-.265-.118-.558-.235-.823-.353a13.543,13.543,0,0,0-4.909-4.7c-1.881-1.117-3.7-1.029-5.438-2.5A20.631,20.631,0,0,0,98.1,16.214c2.263,1.264,3.41,1.587,4.527,1.617.382.176.794.353,1.176.529A70.281,70.281,0,0,1,109.037,26c-.176-.088-.382-.206-.588-.323a11.631,11.631,0,0,0-4.174-5.32c-1.764-1.323-3.821-1.44-5.35-3.116,1.088,2.5,2.91,5.438,5.085,6.966s3.322,1.969,4.585,2.116c.294.176.617.353.941.529.735,1.323,1.47,2.645,2.116,4a14.791,14.791,0,0,0-1.529-1.881c-1.587-1.617-3.821-2.087-5-4,.47,2.645,1.675,5.849,3.615,7.731a10.108,10.108,0,0,0,4.439,2.881c.265.206.5.412.764.588.647,1.7,1.205,3.439,1.675,5.173a11.1,11.1,0,0,0-1.587-2.763c-1.382-1.822-3.762-2.645-4.644-4.7-.059,2.645.529,5.967,2.263,8.142.323.382.617.735.882,1.029-.705,2.5-.911,5.791.441,8.23a11.029,11.029,0,0,0,3.733,4.468c.235.353.47.676.705,1.029a50.18,50.18,0,0,1-.617,5.938,13.338,13.338,0,0,0-.118-1.852c-.294-2.263-1.881-4.086-1.646-6.32-1.323,2.322-2.41,5.526-1.969,8.23a10.228,10.228,0,0,0,1.911,5.115c.088.323.176.676.265,1a40.569,40.569,0,0,1-2.7,6.29,13.919,13.919,0,0,0,.735-2.587c.382-2.2-.441-4.145.382-6.232-1.793,2.028-3.674,4.938-4.056,7.584s-.265,3.909.176,5.115c-.029.235-.029.5-.059.735a45.372,45.372,0,0,1-3.2,4.086c.147-.235.265-.441.382-.676,1-1.911.823-3.733,2.2-5.5a19.83,19.83,0,0,0-5.879,6.261c-1.146,2.293-1.411,3.439-1.382,4.556A82.411,82.411,0,0,1,89.46,97.488a21.542,21.542,0,0,0-3.821,1.264,12.676,12.676,0,0,1-5,1.146,4.753,4.753,0,0,1-4.38-2.675c1.293-.47,2.469-1.881,3.468-3.439.911-1.44,2.851-6.908,5.673-5.379,1.852,1,.647,4.556-.382,6.819.059-.059.118-.088.147-.147,1.881-1.7,8.671-11.993.176-10.523.617-2.293,1.7-4.556,3.5-4.468,2.116.118,2.7,3.821,2.822,6.29l.088-.176c.97-2.469,2.969-9.494-1.5-10.317.647-1.7,1.617-3.057,3-3,2.116.118,2.7,3.821,2.822,6.29L96.162,79c.852-2.2,2.645-8.377-.617-9.994.735-1.352,1.7-2.381,2.881-2.175,1.822.294,1.911,3.586,1.764,5.732a.643.643,0,0,1,.088-.147,18.862,18.862,0,0,0,1.47-3.615,31.271,31.271,0,0,0,8.436-21.223c0-18.048-15.843-32.774-35.244-32.774S39.7,29.529,39.7,47.577A31.271,31.271,0,0,0,48.132,68.8a15.689,15.689,0,0,0,1.47,3.615c.029.059.059.088.088.147-.176-2.146-.059-5.409,1.764-5.732,1.176-.206,2.146.823,2.881,2.175-3.263,1.617-1.47,7.819-.617,9.994l.088.176c.118-2.469.705-6.173,2.822-6.29,1.382-.059,2.352,1.293,3,3-4.5.794-2.469,7.819-1.528,10.317l.088.176c.118-2.469.705-6.173,2.822-6.29,1.793-.088,2.881,2.175,3.5,4.468-8.495-1.47-1.7,8.818.176,10.523l.147.147c-1.029-2.263-2.234-5.849-.382-6.819,2.822-1.5,4.732,3.968,5.673,5.379,1,1.528,2.175,2.969,3.469,3.439a4.7,4.7,0,0,1-4.38,2.675,12.676,12.676,0,0,1-5-1.146,24.224,24.224,0,0,0-3.821-1.264,82.527,82.527,0,0,1-11.493-8.2c-.059-1.558-1.675-4.2-1.911-5.115-.529-1.911-2.028-3.851-2.881-4.115V80.5a2.142,2.142,0,0,0-2.175-.382,2.071,2.071,0,0,0-1.146-.529c-.265-1.411-.852-3-.911-3.645-.206-1.94-1.352-4.056-2.146-4.468l-.088.441a2.081,2.081,0,0,0-2.058-.705A.687.687,0,0,0,35.375,71c.294-1.558.029-3.88.176-4.674.294-1.911-.265-4.233-.941-4.791a2.688,2.688,0,0,1-.206.412A2,2,0,0,0,32.582,60.8c-.029-.029-.029-.088-.059-.118.852-1.352,1.411-3.762,1.793-4.527.911-1.7,1.146-4.056.676-4.791a3.354,3.354,0,0,1-.323.323,1.95,1.95,0,0,0-1.352-1.646,1.661,1.661,0,0,0-.382-.97c.941-1.176,1.764-2.851,2.234-3.38,1.293-1.47,2.028-3.7,1.764-4.468a4.3,4.3,0,0,1-.382.265,1.909,1.909,0,0,0-.941-1.881,1.844,1.844,0,0,0-.176-1.117c1.176-.97,2.352-2.469,2.939-2.881,1.558-1.176,2.734-3.2,2.645-4.027-.147.059-.265.118-.441.176a1.852,1.852,0,0,0-.529-2,1.783,1.783,0,0,0,0-1.235c1.323-.735,2.792-2,3.469-2.322,1.764-.852,3.292-2.616,3.351-3.439l-.441.088A1.884,1.884,0,0,0,46.28,20.8a1.755,1.755,0,0,0,.206-1.382c1.5-.47,3.38-1.675,4.115-1.94,1.852-.617,3.615-2.116,3.792-2.91-.147,0-.294.029-.47.029a1.86,1.86,0,0,0,.147-2.058,1.814,1.814,0,0,0-.235-2.528.641.641,0,0,0-.147-.118c.206-.176.382-.353.588-.529,2.146.147,5.35-1.117,8.466-3.557,2.557-2,4.145-5,6.849-6.408A23.761,23.761,0,0,0,59.184,3.456a18.463,18.463,0,0,0-4.85,5.085L53.1,9.6a2,2,0,0,0-1.94.323,2.024,2.024,0,0,0-2.116.265V9.747c-.823.206-2.293,2-2.822,3.821-.235.794-1.528,2.881-1.822,4.38a1.987,1.987,0,0,0-1.411.647,2.012,2.012,0,0,0-2.058.558,2.269,2.269,0,0,1-.059-.441c-.794.323-2,2.293-2.263,4.174a43.414,43.414,0,0,0-1.176,4.439,1.912,1.912,0,0,0-1.029.823,2.007,2.007,0,0,0-1.94.911,2.587,2.587,0,0,1-.147-.441c-.705.47-1.528,2.645-1.411,4.556.029.764-.441,2.939-.323,4.468a1.73,1.73,0,0,0-.852,1.029,2,2,0,0,0-1.7,1.293,4.351,4.351,0,0,0-.235-.382c-.617.588-.941,2.91-.441,4.762.206.735.176,2.91.588,4.409a1.885,1.885,0,0,0-.588,1.205A1.913,1.913,0,0,0,28,51.575a3.354,3.354,0,0,0-.323-.323c-.441.705-.265,3.057.647,4.791.323.617.735,2.381,1.352,3.762a1.893,1.893,0,0,0-.911,2.087A1.957,1.957,0,0,0,28,63.861c-.147-.088-.294-.147-.412-.235-.206.823.764,3,2.2,4.38.5.47,1.47,2,2.469,3.116a1.877,1.877,0,0,0-.147,2.028,1.888,1.888,0,0,0-.235,2.087c-.147-.029-.323-.088-.441-.118.029.852,1.528,2.763,3.292,3.762.705.412,2.322,2,3.733,2.792a2.017,2.017,0,0,0,.382.852,1.863,1.863,0,0,0,.147,2.116,2.285,2.285,0,0,1-.47-.059c.176.852,1.969,2.5,3.88,3.263.97.382,3.792,2.469,5.35,2.5a88.735,88.735,0,0,0,9.818,7.2,4.475,4.475,0,0,0-2.175,3.351,79.859,79.859,0,0,1-11.7-6.349c-.088-1.617-2.792-4.85-3.322-5.908-1-2.058-3.086-4.145-4.056-4.409a2.523,2.523,0,0,1,.088.5,2.493,2.493,0,0,0-2.44-.382,2.578,2.578,0,0,0-2-.529c-.441-1.764-1.587-4.056-1.793-4.909-.529-2.2-2.116-4.644-3.028-5.115v.5a2.6,2.6,0,0,0-2.322-.882,3.143,3.143,0,0,0-1.088-.794c.265-1.793-.176-4.7-.088-5.673.206-2.263-.529-5.026-1.235-5.732-.059.147-.118.323-.176.47a2.371,2.371,0,0,0-1.94-1.5,2.65,2.65,0,0,0-.794-1.058c.852-1.617,1.382-4.468,1.793-5.35.941-2.058,1.176-4.909.735-5.791-.088.118-.206.265-.323.412a2.331,2.331,0,0,0-1.352-2,2.339,2.339,0,0,0-.441-1.264c1.323-1.293,2.734-3.821,3.38-4.527,1.558-1.675,2.675-4.292,2.528-5.262a3.83,3.83,0,0,0-.441.294,2.313,2.313,0,0,0-.647-2.293,2.356,2.356,0,0,0-.059-1.5c1.617-.941,3.645-2.881,4.468-3.38,1.969-1.205,3.821-3.41,3.939-4.38a2.483,2.483,0,0,1-.5.147,2.246,2.246,0,0,0,.029-2.381,2.249,2.249,0,0,0,.265-1.911,17.334,17.334,0,0,0,6.584-4.85c2.381-2.645,3.7-6.408,6.32-8.407a22.78,22.78,0,0,0-10.2,6.026,21.878,21.878,0,0,0-3.909,6.114,2.37,2.37,0,0,0-2.381.852A2.408,2.408,0,0,0,27,20.564c0-.176-.029-.353-.029-.5-.882.47-2.381,2.91-2.822,5.115-.206.97-1.528,3.762-1.734,5.555a2.321,2.321,0,0,0-1.5,1.382,2.343,2.343,0,0,0-1.94,1.44c-.059-.176-.118-.323-.176-.47-.705.676-1.44,3.439-1.235,5.673.088.97-.353,3.909-.088,5.732A2.248,2.248,0,0,0,16.3,46.372a2.286,2.286,0,0,0-1.382,1.94c-.118-.147-.206-.265-.323-.412-.47.852-.265,3.7.617,5.82.382.911.911,3.821,1.734,5.5a2.239,2.239,0,0,0-.529,2.175,2.2,2.2,0,0,0-.647,2.263c-.147-.088-.294-.206-.441-.294-.147.97.97,3.615,2.528,5.35.676.735,2.116,3.38,3.439,4.7a2.148,2.148,0,0,0,.206,2.234,2.258,2.258,0,0,0,.118,2.381c-.176-.059-.353-.088-.5-.147.176.97,2.087,3.175,4.115,4.35.97.558,3.586,3.057,5.291,3.7A2.5,2.5,0,0,0,31.23,87.2a2.247,2.247,0,0,0,.617,2.293,3.239,3.239,0,0,1-.529-.059c.382.911,2.734,2.7,4.968,3.469,1,.353,3.733,2.028,5.555,2.5A79.455,79.455,0,0,0,55.1,102.6v.97a6.73,6.73,0,0,0-2.322.558,7.768,7.768,0,0,0-1.587,1.029A118.291,118.291,0,0,1,38.255,99.37c-.794-1.852-4.35-4.968-5.173-6.085-1.646-2.234-4.644-4.468-5.938-4.732.088.176.147.353.235.529a3.879,3.879,0,0,0-3.175-.382,4.275,4.275,0,0,0-2.381-.588c-.911-2.058-2.91-4.791-3.351-5.82-1.146-2.557-3.615-5.32-4.821-5.849a3.527,3.527,0,0,1,.088.588,3.62,3.62,0,0,0-3.028-.941,3.209,3.209,0,0,0-.5-.382c.294-2.2-.647-6.379-.647-7.672,0-2.851-1.117-6.349-2.028-7.26a6.153,6.153,0,0,1-.147.617,3.1,3.1,0,0,0-2.381-1.881l-.176-.353c1.205-2.146,2.234-6.026,2.792-7.2,1.352-2.763,2-6.526,1.617-7.7a6.457,6.457,0,0,1-.412.529A2.776,2.776,0,0,0,7.6,42.11v-.147c2.058-1.734,4.674-4.909,5.732-5.791,2.528-2.2,4.909-5.614,5.144-6.878a7.033,7.033,0,0,0-.617.382c.647-.97.705-2.469.206-3a3.09,3.09,0,0,0,.353-2.792,12.728,12.728,0,0,0,5.614-4.321c1.881-2.293,2.734-5.409,4.85-7.2a20.028,20.028,0,0,0-8.407,5.614,18.785,18.785,0,0,0-3.086,5.232,3.844,3.844,0,0,0-3.028,1.881,4.207,4.207,0,0,0-2.881,1.881v-.647c-1.117.882-3.116,4.468-3.821,7.437-.235.97-1.293,3.439-1.969,5.585A3.075,3.075,0,0,0,3.365,42.08a3.413,3.413,0,0,0-1.822,2.587,5.109,5.109,0,0,1-.294-.558c-.647,1.146-.823,4.938-.118,7.76.235.97.412,3.762.823,5.967a2.525,2.525,0,0,0-1,3.233A2.88,2.88,0,0,0,.425,63.95,5.962,5.962,0,0,1-.1,63.567c-.059,1.205,1.5,4.585,3.469,6.761.735.823,2.322,3.469,3.821,5.232-.911.705-.794,2.146.235,3.292a2.648,2.648,0,0,0,.647,2.734c-.235-.059-.441-.118-.647-.176.412,1.117,3.233,3.615,6,4.938,1.235.588,4.615,3.145,6.878,4.027A3.269,3.269,0,0,0,21.5,91.933a2.472,2.472,0,0,0,.852,2.234,5.123,5.123,0,0,0-3.586.705,5.466,5.466,0,0,1,3.439,4.056A30.36,30.36,0,0,0,8.8,100.1a14.433,14.433,0,0,1,7.936,4.115c2.763,2.645,5.173,6.2,7.848,8.524a40,40,0,0,0,7.437,5.173c1.264.676,3.527,1.558,4.468.764a3.23,3.23,0,0,0,.97-2.675,83.551,83.551,0,0,0,74.955,0,3.23,3.23,0,0,0,.97,2.675c.941.794,3.175-.088,4.439-.764a43.005,43.005,0,0,0,7.437-5.173c2.675-2.352,5.085-5.908,7.848-8.524a14.246,14.246,0,0,1,7.936-4.115,30.8,30.8,0,0,0-13.4-1.176,5.455,5.455,0,0,1,3.439-4.056,5.47,5.47,0,0,0-3.175-.764c.029,0,.029-.029.059-.029-.029,0-.059.029-.088.029a4.632,4.632,0,0,0-1.7.529c-1.734.353-3.351.147-5.262.676-.5.147-.97.294-1.47.441,1.587-1.117,3.086-2.263,4.527-3.439.118-.029.235-.088.353-.118a11.123,11.123,0,0,0,5.144-1.176,25.726,25.726,0,0,0,7.819-6.232c-2.175,1.44-4.321,1.058-6.643,2.058a12.01,12.01,0,0,0-1.382.676c1.44-1.47,2.763-2.969,3.968-4.468.176-.088.353-.206.529-.294a10.116,10.116,0,0,0,4.821-1.881c2.087-1.293,4.732-4.556,6.085-7.172-1.793,1.7-4.056,1.646-6.085,2.939a17.321,17.321,0,0,0-1.675,1.205,46.077,46.077,0,0,0,3.145-5.938c.235-.206.5-.382.735-.588a10.219,10.219,0,0,0,4.38-2.587c1.734-1.587,3.469-5.085,4.086-7.789C147.9,62.862,145.574,63.215,143.869,64.773ZM145.6,54.69c1.205-1.734,2.44-2.322,3.615-3.439a12.608,12.608,0,0,1-2.2,6.379,7.5,7.5,0,0,1-2.557,2.41c.441-.558.852-1.176,1.235-1.764a28.42,28.42,0,0,0,2.557-4.821,32.588,32.588,0,0,1-1.969,3.5,33.732,33.732,0,0,1-2.528,3.38A9.37,9.37,0,0,1,145.6,54.69Zm-1.382-10.435c.676-1.94,1.675-2.734,2.469-4.056a12.512,12.512,0,0,1-.441,6.584,6.886,6.886,0,0,1-1.764,2.851c.265-.647.5-1.293.705-1.969a29.091,29.091,0,0,0,1.146-5.144,27.073,27.073,0,0,1-.941,3.762,33.439,33.439,0,0,1-1.5,3.762A9.436,9.436,0,0,1,144.221,44.256Zm-.588,6.114-.088.176c-.029-.206-.029-.441-.059-.647C143.545,50.046,143.575,50.223,143.634,50.37Zm-.265,9.612a3.94,3.94,0,0,0,.029.588l-.147.147C143.31,60.452,143.34,60.217,143.369,59.981ZM126.526,19.623c-1.793-2.175-2.469-3.968-3.674-5.879a16.935,16.935,0,0,1,6.437,4.938,17.2,17.2,0,0,1,2.587,4.174c-.588-.735-1.205-1.5-1.852-2.2a48.247,48.247,0,0,0-4.909-4.909,48.3,48.3,0,0,1,3.586,3.7q1.9,2.16,3.527,4.409C130.494,23.533,128.319,21.769,126.526,19.623Zm-15.344-4.38c-2.293-2.5-3.233-4.674-4.821-6.908a19.418,19.418,0,0,1,7.848,5.379,19.921,19.921,0,0,1,3.38,4.909c-.764-.852-1.528-1.7-2.352-2.557a58.972,58.972,0,0,0-6.114-5.526,52.97,52.97,0,0,1,4.468,4.2,66.22,66.22,0,0,1,4.468,5.115C116.121,19.653,113.475,17.713,111.182,15.244Zm10.641,12.816c.323.294.676.588,1,.852a9.146,9.146,0,0,1-3.116-2.058,13.583,13.583,0,0,1-3.527-5.379,31.713,31.713,0,0,1,4.2,2.763,9.227,9.227,0,0,1,2.91,4.644c-.823-.617-1.646-1.293-2.44-2a36.323,36.323,0,0,1-3.028-2.969A32.826,32.826,0,0,0,121.823,28.059Zm1.852.97a7.248,7.248,0,0,0-.617-1.734c.588.911,1.088,1.734,1.44,2.293C124.233,29.411,123.939,29.235,123.675,29.029Zm1.617-3.263a31.035,31.035,0,0,0-1.117-5.232,31.864,31.864,0,0,1,.735,3.851,27,27,0,0,1,.206,4.027,10.059,10.059,0,0,1-2.2-5.585c-.176-2.028.412-3.116.588-4.615a13.394,13.394,0,0,1,2.41,6.379,6.576,6.576,0,0,1-.441,3.263C125.409,27.178,125.35,26.472,125.292,25.767Zm1.205,13.11c.294.353.588.676.911,1a8.286,8.286,0,0,1-2.939-2.469,12.25,12.25,0,0,1-2.616-6.026c1.235,1.088,2.528,1.617,3.968,3.322a8.315,8.315,0,0,1,2.116,5.2c-.764-.735-1.5-1.5-2.234-2.352a33.272,33.272,0,0,1-2.616-3.439A27.052,27.052,0,0,0,126.5,38.876ZM87.99,5.867C85.551,4.015,84.434,2.281,82.7.576a19.291,19.291,0,0,1,8.083,3.762A18.39,18.39,0,0,1,94.516,8.1c-.823-.647-1.646-1.293-2.5-1.911A52.7,52.7,0,0,0,85.58,2.163a53.431,53.431,0,0,1,4.7,3.086c1.675,1.205,3.292,2.5,4.791,3.821C93.164,9.071,90.4,7.719,87.99,5.867Zm12.522,10.817c.382.206.735.412,1.117.617a8.021,8.021,0,0,1-3.263-1.293A17.91,17.91,0,0,1,93.4,11.334,28.474,28.474,0,0,1,97.808,13.1a12.1,12.1,0,0,1,4.174,4.086q-1.323-.617-2.734-1.411a41.186,41.186,0,0,1-3.557-2.293A45.731,45.731,0,0,0,100.512,16.684Zm.882-4.762a39.529,39.529,0,0,1,1.822,4.2,14.386,14.386,0,0,1-4-5.291,26.448,26.448,0,0,1-1.44-5.026,18.969,18.969,0,0,1,4.468,6.055,9.826,9.826,0,0,1,1,3.557c-.294-.705-.647-1.44-1-2.146a43.3,43.3,0,0,0-3.028-5.2A43.758,43.758,0,0,1,101.394,11.922Zm5.2,13.051c.353.265.705.5,1.088.735a7.931,7.931,0,0,1-3.263-1.675,14.608,14.608,0,0,1-4.2-5.291c1.382.764,2.645.941,4.409,2.234a9.979,9.979,0,0,1,3.527,4.615c-.882-.529-1.764-1.117-2.645-1.734a40.051,40.051,0,0,1-3.322-2.7A30.088,30.088,0,0,0,106.6,24.973Zm2.939.029c.029.029.088.059.118.118v.088A.737.737,0,0,0,109.536,25Zm.412-1.029q-.22-1.146-.529-2.293a39.235,39.235,0,0,0-1.911-5.614,38.659,38.659,0,0,1,1.323,4.174,44.344,44.344,0,0,1,.882,4.468,11.861,11.861,0,0,1-3-5.791c-.5-2.234-.147-3.557-.206-5.291a16,16,0,0,1,3.322,6.614A8.592,8.592,0,0,1,109.948,23.974Zm1.382,9.965c.323.323.647.617.97.911a8.045,8.045,0,0,1-3.116-2.2,12.611,12.611,0,0,1-3.145-5.908c1.323,1,2.645,1.382,4.2,2.969A8.5,8.5,0,0,1,112.8,34.82c-.823-.676-1.617-1.382-2.41-2.146a32.456,32.456,0,0,1-2.91-3.233A33.034,33.034,0,0,0,111.329,33.938Zm1.911,1a6.5,6.5,0,0,0-.147-.97c.176.412.323.823.5,1.205A2.453,2.453,0,0,1,113.24,34.938Zm1.352.088c-.176-.441-.353-.882-.558-1.323a9.9,9.9,0,0,0,.617.911A2.306,2.306,0,0,1,114.592,35.026ZM113.211,28c.088-2.293.882-3.527,1.264-5.232a13.506,13.506,0,0,1,1.764,7.084,8.672,8.672,0,0,1-.911,3.7c.059-.764.088-1.558.088-2.352a30.475,30.475,0,0,0-.529-5.849,29.165,29.165,0,0,1,.265,4.321,32.168,32.168,0,0,1-.323,4.527A10.306,10.306,0,0,1,113.211,28ZM57.832,6.219c-.852.617-1.675,1.264-2.5,1.911a17.65,17.65,0,0,1,3.733-3.762A19.291,19.291,0,0,1,67.15.605C65.416,2.31,64.3,4.044,61.859,5.9s-5.173,3.2-7.113,3.2c1.5-1.323,3.116-2.616,4.791-3.821,1.617-1.176,3.2-2.2,4.7-3.086A52.5,52.5,0,0,0,57.832,6.219ZM49.19,10.54a1.509,1.509,0,0,1,2.087.029,1.448,1.448,0,0,1,.529,1.117,1.478,1.478,0,0,0-.5-1.352l-.029-.029a1.746,1.746,0,0,1,2.293.059,1.558,1.558,0,0,1,.206,2.2l-.029-.029a1.6,1.6,0,0,0-1.411-.382,1.61,1.61,0,0,1,1.176.412,1.386,1.386,0,0,1,.147,2c-.088.088-.176.147-.265.235-.794,0-1.734-.059-2.675-.029a15.779,15.779,0,0,0,.97-2.469,14.366,14.366,0,0,0-2.5,1.058c-.029-.911-.147-1.822-.206-2.587A1.472,1.472,0,0,1,49.19,10.54Zm-2.734,3.5c.529-1.617,1.5-3.263,2.2-3.5-.029.794.147,1.94.206,3.086a7.537,7.537,0,0,0-1,.764,12.037,12.037,0,0,0-1.911,1.969,13.9,13.9,0,0,1,5.35-3.645,12.919,12.919,0,0,1-3.469,5.35,13.277,13.277,0,0,0,1.911-1.94,9.046,9.046,0,0,0,.705-1c1.205-.029,2.381.088,3.233,0-.176.676-1.852,1.7-3.5,2.322a41.238,41.238,0,0,1-3.909,1.822,2.174,2.174,0,0,0-.676-.794,2.526,2.526,0,0,0-.882-.353A28.677,28.677,0,0,1,46.456,14.038Zm-5.32,5.409a1.533,1.533,0,0,1,2.087-.265,1.568,1.568,0,0,1,.676,1.029,1.539,1.539,0,0,0-.676-1.264l-.029-.029a1.706,1.706,0,0,1,2.293-.235,1.569,1.569,0,0,1,.529,2.146l-.029-.029a1.64,1.64,0,0,0-1.47-.176,1.578,1.578,0,0,1,1.235.265,1.394,1.394,0,0,1,.441,1.969,1.9,1.9,0,0,1-.235.265c-.794.118-1.734.176-2.675.323a14.189,14.189,0,0,0,.617-2.587,15.842,15.842,0,0,0-2.322,1.411c-.176-.911-.412-1.793-.558-2.528A.324.324,0,0,1,41.136,19.447ZM38.9,23.3c.294-1.675,1.029-3.469,1.675-3.792.088.794.441,1.911.647,3.057a8.313,8.313,0,0,0-.882.882,13.614,13.614,0,0,0-1.617,2.2,13.8,13.8,0,0,1,4.791-4.35,13.131,13.131,0,0,1-2.675,5.791,14.347,14.347,0,0,0,1.646-2.2,8.252,8.252,0,0,0,.588-1.117c1.205-.176,2.381-.235,3.2-.441-.088.676-1.617,1.94-3.145,2.792-.47.265-1.969,1.47-3.233,2.175a2,2,0,0,0-.911-.794,1.952,1.952,0,0,0-1.146-.147A32.029,32.029,0,0,1,38.9,23.3Zm-4.174,6.026a1.5,1.5,0,0,1,2-.647,1.526,1.526,0,0,1,.852.911,1.515,1.515,0,0,0-.911-1.117.029.029,0,0,1-.029-.029,1.724,1.724,0,0,1,2.2-.676,1.569,1.569,0,0,1,.911,2.028.029.029,0,0,1-.029-.029,1.59,1.59,0,0,0-1.5.088,1.712,1.712,0,0,1,1.264.029,1.409,1.409,0,0,1,.794,1.881,2.583,2.583,0,0,1-.176.294c-.764.265-1.675.5-2.557.823a17.162,17.162,0,0,0,.118-2.675,13.983,13.983,0,0,0-2.028,1.822c-.353-.852-.735-1.7-1.029-2.41A2.027,2.027,0,0,1,34.728,29.323Zm-1.47,4.233c0-1.7.353-3.615.941-4.056.235.764.794,1.793,1.205,2.91a10.39,10.39,0,0,0-.705,1.029,12.826,12.826,0,0,0-1.176,2.5,13.6,13.6,0,0,1,3.88-5.2,13.381,13.381,0,0,1-1.528,6.232A11.248,11.248,0,0,0,37.05,34.5a6.89,6.89,0,0,0,.353-1.205c1.146-.412,2.293-.676,3.086-1.029.029.705-1.205,2.2-2.557,3.322-.412.353-1.617,1.764-2.734,2.7a2.016,2.016,0,0,0-1.146-.705,2.053,2.053,0,0,0-1.117.059C32.876,36.2,33.258,34.115,33.258,33.556ZM30.29,40.2a1.5,1.5,0,0,1,1.822-1.029,1.579,1.579,0,0,1,1.029.735,1.586,1.586,0,0,0-1.117-.941h-.029a1.694,1.694,0,0,1,2.028-1.088A1.614,1.614,0,0,1,35.345,39.7h-.029a1.574,1.574,0,0,0-1.44.382,1.685,1.685,0,0,1,1.264-.235,1.452,1.452,0,0,1,1.176,1.7,1.053,1.053,0,0,1-.118.323c-.676.412-1.528.823-2.352,1.323a15.48,15.48,0,0,0-.441-2.645,15.9,15.9,0,0,0-1.617,2.2c-.5-.794-1.088-1.528-1.528-2.175A.814.814,0,0,1,30.29,40.2Zm-.558,4.468c-.382-1.7-.412-3.645.088-4.174.382.735,1.146,1.617,1.793,2.616a7.521,7.521,0,0,0-.47,1.176,11.665,11.665,0,0,0-.617,2.675,13.361,13.361,0,0,1,2.734-5.879,13.1,13.1,0,0,1-.206,6.437,12.714,12.714,0,0,0,.647-2.675,9.807,9.807,0,0,0,.088-1.264c1.029-.617,2.116-1.117,2.792-1.617.176.676-.735,2.44-1.822,3.792-.323.412-1.205,2-2.087,3.145a1.968,1.968,0,0,0-1.352-.5,2.224,2.224,0,0,0-1.088.294C29.908,47.283,29.849,45.226,29.731,44.667Zm.059,5.7a1.665,1.665,0,0,1,1.176.5,1.563,1.563,0,0,0-1.323-.676h-.029a1.663,1.663,0,0,1,1.734-1.5,1.638,1.638,0,0,1,1.7,1.528h-.059a1.562,1.562,0,0,0-1.323.676,1.641,1.641,0,0,1,1.176-.47A1.505,1.505,0,0,1,34.4,51.839a1.431,1.431,0,0,1-.029.353c-.588.529-1.293,1.146-2,1.793a15.662,15.662,0,0,0-1.029-2.5,14.19,14.19,0,0,0-1.058,2.5c-.676-.676-1.411-1.264-1.969-1.822a1.431,1.431,0,0,1-.029-.353A1.389,1.389,0,0,1,29.79,50.37Zm-1.058,5.908C28,54.69,27.5,52.78,27.85,52.163c.558.617,1.5,1.352,2.352,2.2A12.64,12.64,0,0,0,30,55.631a12.4,12.4,0,0,0,0,2.763,13.275,13.275,0,0,1,1.323-6.379,13.314,13.314,0,0,1,1.264,6.379,14.411,14.411,0,0,0,.029-2.763,8.108,8.108,0,0,0-.206-1.264c.882-.823,1.822-1.558,2.352-2.175.353.647-.147,2.528-.911,4.115a37.767,37.767,0,0,1-1.617,4.115,1.994,1.994,0,0,0-2.175-.617c-.029,0-.059.029-.088.029C29.408,58.512,28.938,56.748,28.732,56.278Zm.558,5.849a1.561,1.561,0,0,1,1.264.118,1.6,1.6,0,0,0-1.47-.235h-.029A1.635,1.635,0,0,1,30.2,60.04a1.681,1.681,0,0,1,2.116.941h-.029A1.562,1.562,0,0,0,31.26,62.01a1.582,1.582,0,0,1,2.881.059l.088.353c-.382.676-.852,1.47-1.293,2.322a14.7,14.7,0,0,0-1.822-2.087,15.281,15.281,0,0,0-.176,2.7c-.882-.441-1.764-.794-2.469-1.146a1.086,1.086,0,0,1-.147-.323A1.345,1.345,0,0,1,29.29,62.127Zm.941,5.967C29,66.8,27.909,65.125,28.026,64.42c.735.441,1.852.852,2.969,1.382a7.256,7.256,0,0,0,.235,1.264,14.026,14.026,0,0,0,.941,2.645,13.805,13.805,0,0,1-.852-6.5,14,14,0,0,1,3.322,5.732,16.725,16.725,0,0,0-.882-2.675c-.206-.412-.382-.823-.588-1.146.558-1.058,1.205-2.028,1.528-2.792.529.5.705,2.469.5,4.2-.059.588.088,2.763-.118,4.233a2.083,2.083,0,0,0-2.146,0,2.243,2.243,0,0,0-.323.235C31.583,69.946,30.584,68.476,30.231,68.094Zm2.44,5.173a1.6,1.6,0,0,1,1.264-.176,1.689,1.689,0,0,0-1.5.088.029.029,0,0,0-.029.029,1.6,1.6,0,0,1,.588-2.175,1.722,1.722,0,0,1,2.293.412.029.029,0,0,0-.029.029,1.492,1.492,0,0,0-.735,1.264,1.484,1.484,0,0,1,.705-1.029,1.566,1.566,0,0,1,2.116.412,3.2,3.2,0,0,1,.176.323c-.176.764-.441,1.646-.647,2.557a14.536,14.536,0,0,0-2.322-1.617,15.546,15.546,0,0,0,.529,2.7c-.941-.235-1.911-.353-2.7-.529a2.571,2.571,0,0,1-.235-.294A1.463,1.463,0,0,1,32.671,73.268Zm5.791,8.142c-1.293-.794-2.851-2.2-3.322-2.528-1.528-.97-3.028-2.352-3.086-3.086.823.235,2.028.382,3.233.676a8.425,8.425,0,0,0,.558,1.176,13.979,13.979,0,0,0,1.587,2.381A14.355,14.355,0,0,1,34.9,73.885a14.761,14.761,0,0,1,4.7,4.821,13.239,13.239,0,0,0-1.558-2.381,9.654,9.654,0,0,0-.882-.97c.265-1.176.647-2.263.764-3.086.647.382,1.323,2.263,1.587,4,.088.47.588,2.028.852,3.38a2.055,2.055,0,0,0-1.205.47A1.706,1.706,0,0,0,38.461,81.41Zm.911,1.146a1.725,1.725,0,0,1,1.235-.382,1.584,1.584,0,0,0-1.47.323l-.029.029a1.6,1.6,0,0,1,.235-2.263,1.754,1.754,0,0,1,2.352.059l-.029.029a1.454,1.454,0,0,0-.5,1.352,1.448,1.448,0,0,1,.529-1.117,1.581,1.581,0,0,1,2.146.088c.088.088.147.206.235.294-.059.794-.176,1.7-.206,2.645a22.671,22.671,0,0,0-2.557-1.264,15.068,15.068,0,0,0,.97,2.587c-.97-.088-1.94-.088-2.763-.118a1.9,1.9,0,0,1-.265-.235A1.346,1.346,0,0,1,39.372,82.556Zm8.906,7.466c-.852.735-4.674-1.881-5.5-2.263-1.675-.735-3.38-1.881-3.586-2.587.852.118,2.058.088,3.322.176.206.353.47.705.735,1.088a13.546,13.546,0,0,0,1.969,2.116,14.19,14.19,0,0,1-3.527-5.732,15.226,15.226,0,0,1,5.467,4.086,16.408,16.408,0,0,0-1.94-2.146,12.091,12.091,0,0,0-1.029-.852c.059-1.205.235-2.352.235-3.175.705.265,1.675,2.058,2.234,3.733C46.9,85.349,49.131,89.287,48.279,90.022ZM35.61,13.715a19.128,19.128,0,0,1,7.848-5.379c-1.558,2.234-2.528,4.409-4.821,6.908a16.212,16.212,0,0,1-5.967,4.409,5.643,5.643,0,0,0-.412-.441c1.235-1.528,2.587-3.028,3.968-4.468,1.529-1.587,3.028-2.969,4.468-4.2a59.069,59.069,0,0,0-6.143,5.526c-.794.823-1.587,1.675-2.352,2.557A21.67,21.67,0,0,1,35.61,13.715Zm-8.348,7.143a1.733,1.733,0,0,1,2.293-.558,1.452,1.452,0,0,1,.617,1.117,1.4,1.4,0,0,0-.617-1.382.029.029,0,0,1-.029-.029,1.9,1.9,0,0,1,2.5-.558,1.742,1.742,0,0,1,.353,2.44l-.029-.029a1.628,1.628,0,0,0-1.558-.059,1.494,1.494,0,0,1,1.617,2.41,3.124,3.124,0,0,1-.265.323c-.852.206-1.881.412-2.91.705a26,26,0,0,0,.911-3.057A18.992,18.992,0,0,0,27.5,24.091c-.088-1.029-.265-2.028-.382-2.881A.611.611,0,0,1,27.262,20.858ZM24.5,25.59c.5-2,1.44-4.145,2.175-4.585.029.911.294,2.175.412,3.469q-.485.485-1.058,1.146a16.83,16.83,0,0,0-1.94,2.763,19.774,19.774,0,0,1,5.585-5.614,19.306,19.306,0,0,1-3.439,7.055A19.1,19.1,0,0,0,28.2,27.089c.294-.47.529-.941.735-1.352,1.323-.353,2.616-.558,3.5-.882-.176.823-1.911,2.44-3.674,3.586A53.141,53.141,0,0,1,24.5,31.675a1.785,1.785,0,0,0-.97-.764,1.942,1.942,0,0,0-.705-.088A46.734,46.734,0,0,1,24.5,25.59Zm-5.2,8.2a1.673,1.673,0,0,1,2.028-1.146,1.476,1.476,0,0,1,.911.911,1.52,1.52,0,0,0-1-1.176.091.091,0,0,1-.059-.029,1.837,1.837,0,0,1,2.234-1.176,1.792,1.792,0,0,1,1.058,2.263h-.059a1.544,1.544,0,0,0-1.528.353,1.453,1.453,0,0,1,1.293-.206,1.574,1.574,0,0,1,.911,2.087c-.059.147-.118.265-.176.382-.764.441-1.675.911-2.587,1.44a19.1,19.1,0,0,0-.029-3.2,25.345,25.345,0,0,0-2,2.528c-.382-.97-.852-1.881-1.176-2.675A.99.99,0,0,0,19.3,33.791ZM18,39.112c-.088-2.058.206-4.38.764-5,.294.882.882,2,1.382,3.233a15.228,15.228,0,0,0-.676,1.382A20.3,20.3,0,0,0,18.385,41.9,19.626,19.626,0,0,1,22.118,35a18.885,18.885,0,0,1-1.264,7.7,19.17,19.17,0,0,0,1.117-3.175c.118-.529.235-1.029.294-1.5,1.146-.676,2.322-1.235,3.116-1.764.088.823-1.146,2.851-2.469,4.439a50.487,50.487,0,0,1-3.2,4.321,1.833,1.833,0,0,0-1.293-.588,2.285,2.285,0,0,0-.47.059A38.588,38.588,0,0,1,18,39.112Zm-1.146,7.672a1.477,1.477,0,0,1,1.176.617,1.592,1.592,0,0,0-1.323-.852h-.059a1.83,1.83,0,0,1,1.734-1.793,1.861,1.861,0,0,1,1.7,1.852h-.059a1.477,1.477,0,0,0-1.323.794,1.421,1.421,0,0,1,1.176-.558,1.645,1.645,0,0,1,1.528,1.734c0,.147-.029.294-.029.412-.588.647-1.323,1.352-2,2.146a21.763,21.763,0,0,0-1.029-3.057,21.756,21.756,0,0,0-1.088,3c-.676-.823-1.411-1.558-1.969-2.234a2.082,2.082,0,0,1-.029-.441A1.625,1.625,0,0,1,16.857,46.783ZM15.74,53.926c-.735-1.94-1.205-4.262-.852-5,.558.764,1.47,1.675,2.352,2.7-.088.441-.147.97-.206,1.5a18.222,18.222,0,0,0,0,3.351,19.884,19.884,0,0,1,1.352-7.7,19.419,19.419,0,0,1,1.235,7.76,15.905,15.905,0,0,0,.029-3.351,11.515,11.515,0,0,0-.176-1.528c.882-1,1.822-1.852,2.381-2.587.323.764-.176,3.086-.941,4.968A45.053,45.053,0,0,1,19.237,59.1a1.979,1.979,0,0,0-1.47-.176.911.911,0,0,0-.382.176A40.739,40.739,0,0,1,15.74,53.926Zm1.323,7.7a1.464,1.464,0,0,1,1.293.235,1.644,1.644,0,0,0-1.529-.412.029.029,0,0,0-.029.029,1.757,1.757,0,0,1,1.029-2.234,1.907,1.907,0,0,1,2.234,1.264h-.029a1.479,1.479,0,0,0-1,1.146,1.309,1.309,0,0,1,.911-.882,1.711,1.711,0,0,1,2.028,1.205,1.154,1.154,0,0,1,.088.412c-.323.794-.794,1.675-1.176,2.645a18.464,18.464,0,0,0-2-2.587,19.057,19.057,0,0,0-.029,3.2c-.911-.588-1.852-1.058-2.587-1.528-.059-.118-.118-.265-.176-.412A1.674,1.674,0,0,1,17.062,61.627Zm1.323,7.143c-1.352-1.617-2.557-3.7-2.469-4.527.764.558,1.94,1.146,3.116,1.852.059.441.176.97.294,1.5a20.531,20.531,0,0,0,1.117,3.2,19.288,19.288,0,0,1-1.264-7.76,19.909,19.909,0,0,1,3.733,7,17.174,17.174,0,0,0-1.088-3.2,15.226,15.226,0,0,0-.676-1.382c.5-1.205,1.117-2.322,1.382-3.2.558.647.852,3,.764,5.026a49.308,49.308,0,0,1,.088,5.379,1.9,1.9,0,0,0-1.44.265,3.126,3.126,0,0,0-.323.265A52.589,52.589,0,0,1,18.385,68.77Zm3.792,6.937a1.593,1.593,0,0,1,1.323-.176,1.621,1.621,0,0,0-1.558.059.029.029,0,0,0-.029.029,1.733,1.733,0,0,1,.265-2.44,1.975,1.975,0,0,1,2.528.529l-.029.029a1.412,1.412,0,0,0-.558,1.411,1.305,1.305,0,0,1,.588-1.117A1.71,1.71,0,0,1,27,74.59a1.667,1.667,0,0,1,.235.382c-.059.852-.206,1.852-.265,2.881a21.174,21.174,0,0,0-2.7-1.911,21.553,21.553,0,0,0,1,3.057c-1.029-.265-2.087-.47-2.939-.676A1.541,1.541,0,0,1,22.03,78,1.558,1.558,0,0,1,22.177,75.707Zm8.436,9.935c-1.558-.676-4.174-3.028-4.879-3.468-1.793-1.146-3.615-2.763-3.792-3.586.911.294,2.2.5,3.527.852.206.412.47.882.764,1.352a22.285,22.285,0,0,0,2.087,2.734,19.924,19.924,0,0,1-3.7-7.025,20.928,20.928,0,0,1,5.791,5.614,21.692,21.692,0,0,0-2.058-2.763c-.382-.412-.735-.823-1.088-1.146.088-1.323.294-2.557.294-3.469.735.441,1.764,2.587,2.352,4.586.176.676,1.293,3.057,1.734,4.732a1.64,1.64,0,0,0-.588.412A1.484,1.484,0,0,0,30.613,85.642Zm1.264,1.5a1.427,1.427,0,0,1,1.235-.412,1.525,1.525,0,0,0-1.528.382l-.029.029a1.721,1.721,0,0,1-.265-2.44,1.9,1.9,0,0,1,2.557.029l-.029.029a1.345,1.345,0,0,0-.235,1.47A1.37,1.37,0,0,1,33.905,85a1.757,1.757,0,0,1,2.352.059,1.541,1.541,0,0,1,.294.323c.118.852.206,1.852.382,2.881a25.314,25.314,0,0,0-3.057-1.323,22.8,22.8,0,0,0,1.646,2.792c-1.088-.059-2.116-.059-3.028-.088l-.353-.265A1.552,1.552,0,0,1,31.877,87.142Zm11.376,7.966c-.764.823-5.5-1.969-6.5-2.352-2-.764-4.115-2-4.5-2.763.97.118,2.263.059,3.645.147a12.3,12.3,0,0,0,1.058,1.176,20.583,20.583,0,0,0,2.616,2.263,20.974,20.974,0,0,1-5.144-6.173,21.615,21.615,0,0,1,6.878,4.321A20,20,0,0,0,38.7,89.434a14.75,14.75,0,0,0-1.323-.882c-.206-1.293-.265-2.557-.47-3.469.823.294,2.293,2.2,3.292,4.027C40.7,90.022,44.017,94.284,43.253,95.107Zm98.588-35.273a29.532,29.532,0,0,1-.764-2.881,27.545,27.545,0,0,1-.588-3.968,29.908,29.908,0,0,0,.676,5.379c.088.412.176.794.294,1.205a7.134,7.134,0,0,1-1.293-3.263,11.828,11.828,0,0,1,.559-6.173c.529,1.411,1.323,2.381,1.764,4.38A8.091,8.091,0,0,1,141.841,59.834ZM140.9,48.488c.029.088.088.176.118.265.176.382.382.735.558,1.088a4.084,4.084,0,0,1-.617-.617A5.725,5.725,0,0,1,140.9,48.488Zm1.617,4.674c-.382-1.146-1.058-2.175-1.411-3.292a5.66,5.66,0,0,0,1.029.882c.118.176.235.382.353.558C142.517,51.927,142.517,52.545,142.517,53.162ZM142.4,49.9c0,.147.029.294.029.441-.029-.059-.059-.088-.088-.147C142.37,50.1,142.37,49.987,142.4,49.9Zm-.382.088c-.5-.823-1-1.675-1.44-2.587a29.853,29.853,0,0,1-1.558-3.674,29.077,29.077,0,0,0,1.852,4.732c-.059.147-.118.294-.176.47a9.107,9.107,0,0,1-1.117-1.911,11.763,11.763,0,0,1-1.029-6.026c.823,1.264,1.822,2,2.734,3.851A7.976,7.976,0,0,1,142.017,49.987Zm-.235-4.85c-.118-.323-.265-.647-.411-.97-.764-1.587-2.116-2.616-2.822-4.115a8.064,8.064,0,0,0,1.675,1.029c.265.265.529.529.823.794C141.341,42.962,141.576,44.05,141.782,45.137Zm-.441-5.056c.059.118.147.206.206.323,0,.059-.029.118-.029.176C141.458,40.4,141.4,40.258,141.341,40.082Zm-2.645-.705c.265.323.529.617.794.911a7.848,7.848,0,0,1-2.587-2.293,12.292,12.292,0,0,1-2.469-5.526,25.975,25.975,0,0,1,3.5,3.116,8.133,8.133,0,0,1,2,4.762c-.676-.676-1.352-1.411-2-2.175A31.485,31.485,0,0,1,135.58,35,28.747,28.747,0,0,0,138.7,39.376Zm1.881-4.879c.176-1.969.882-2.939,1.323-4.35a12.612,12.612,0,0,1,1.235,6.349,6.8,6.8,0,0,1-.941,3.057c.088-.647.147-1.323.176-2a26.4,26.4,0,0,0-.206-5.115,31.828,31.828,0,0,1,.059,3.762,26.938,26.938,0,0,1-.47,3.88A9.086,9.086,0,0,1,140.577,34.5Zm-4.938-8.936c-.176-1.881.382-2.881.529-4.292a12.476,12.476,0,0,1,2.234,5.908,6.074,6.074,0,0,1-.412,3.028q-.044-.926-.176-1.94a27.214,27.214,0,0,0-1.058-4.85A26.727,26.727,0,0,1,137.431,27a27.483,27.483,0,0,1,.206,3.733A9.3,9.3,0,0,1,135.638,25.561Zm-6.261-1.235a28.622,28.622,0,0,1,3.909,2.587,8.254,8.254,0,0,1,2.7,4.321q-1.146-.882-2.293-1.852a35.542,35.542,0,0,1-2.792-2.763,30.284,30.284,0,0,0,3.733,3.821c.294.265.617.529.911.794a8.587,8.587,0,0,1-2.881-1.911A12.67,12.67,0,0,1,129.377,24.326Zm-.47,9.083c.294-2.2,1.176-3.292,1.734-4.879a12.766,12.766,0,0,1,1.146,7,7.325,7.325,0,0,1-1.264,3.439c.118-.735.235-1.47.294-2.234a30.446,30.446,0,0,0,0-5.673,28.741,28.741,0,0,1-.118,4.174,33.129,33.129,0,0,1-.705,4.321A9.483,9.483,0,0,1,128.907,33.409Zm-3.116,8.172c.97,1.411,2.175,2.234,3.175,4.292a7.684,7.684,0,0,1,.558,5.732,30.525,30.525,0,0,1-1.646-2.881,29.516,29.516,0,0,1-1.7-4.086,28.164,28.164,0,0,0,2.146,5.585c.206.412.412.823.647,1.205a7.786,7.786,0,0,1-2.352-3.175A11.475,11.475,0,0,1,125.791,41.581Zm-5.262,7.554c1.235-1.969,2.734-2.7,4.056-4a10.306,10.306,0,0,1-1.44,6.966,8.335,8.335,0,0,1-2.881,2.822c.441-.647.852-1.323,1.264-2a23.488,23.488,0,0,0,2.263-5.35A26.758,26.758,0,0,1,122,51.457a29.023,29.023,0,0,1-2.587,3.821C118.737,53.456,119.325,51.075,120.53,49.135Zm-1.94,8c.353-.412.676-.823,1-1.264a10,10,0,0,0,4.145-3.792,12.71,12.71,0,0,0,1.5-6.937,9.449,9.449,0,0,0,.882,3.057,10.108,10.108,0,0,0,3.469,4.292c.294.47.617.941.941,1.382a45.071,45.071,0,0,1-1.352,10.259l-.353-.705a8.331,8.331,0,0,0,.647-6.849c-.647-2.263-2.734-3.909-2.734-6.232a14.152,14.152,0,0,0-1.558,7.29c-1.293,1.734-3.586,2.175-5.173,3.762a11.916,11.916,0,0,0-2.352,3.38A44.879,44.879,0,0,0,118.59,57.13Zm11.993,6.055a7.2,7.2,0,0,0,.059.794c-.088.088-.206.176-.294.265C130.436,63.861,130.524,63.538,130.583,63.185Zm.235,9.377a39.89,39.89,0,0,1-4.056,2.792c.353-1.911,1.969-3.939,3.939-5.409,2-1.47,3.645-1.675,5.379-2.5a13.041,13.041,0,0,1-4.585,6.085,9.015,9.015,0,0,1-3.821,1.734c.676-.47,1.382-.97,2.028-1.5a31.839,31.839,0,0,0,4.527-4.292A31.9,31.9,0,0,1,130.818,72.562Zm-6.173,1.617a24.533,24.533,0,0,1-.059-3.292,29.792,29.792,0,0,1,.47-4.409,28.708,28.708,0,0,0-.794,5.967c0,.441-.029.911,0,1.352a7.229,7.229,0,0,1-.588-3.88,11.756,11.756,0,0,1,2.528-6.379c.206,1.675.882,2.969.794,5.232A8.243,8.243,0,0,1,124.645,74.179Zm1.646,1.235v.059a.029.029,0,0,0-.029.029C126.262,75.472,126.291,75.443,126.291,75.413Zm-.852-1.47c-.176.353-.353.676-.529,1-.029-.118-.029-.265-.059-.382A3.926,3.926,0,0,0,125.439,73.944Zm1.352-11.758a8.125,8.125,0,0,0,1.558,1.852c.176.382.353.794.529,1.176a42.614,42.614,0,0,1-1.7,4.938c.118-.617.206-1.264.265-1.911C127.555,66.1,126.409,64.185,126.791,62.186Zm.676-.676c.147.441.294.911.441,1.352A7.43,7.43,0,0,1,126,59.217a10.773,10.773,0,0,1,.558-6.878c.764,1.587,1.94,2.675,2.587,4.909a7.242,7.242,0,0,1-.676,5.879c-.441-1.029-.823-2.116-1.176-3.2a25.975,25.975,0,0,1-.97-4.409A25.882,25.882,0,0,0,127.467,61.51Zm-9.818-16.226c-.088-.47-.176-.911-.294-1.382a7.439,7.439,0,0,0,.47.97C117.767,44.99,117.708,45.137,117.649,45.284Zm.059-7.113c.617-2.2,1.764-3.292,2.587-4.879a11.585,11.585,0,0,1,.353,7.2,8.261,8.261,0,0,1-1.852,3.439c.235-.735.441-1.5.617-2.263a27.645,27.645,0,0,0,.735-5.791,28.084,28.084,0,0,1-.676,4.233,28.907,28.907,0,0,1-1.382,4.35A8.594,8.594,0,0,1,117.708,38.171Zm-1.528,5.35c.147.617.265,1.205.382,1.822-.147-.118-.265-.265-.412-.382A7.807,7.807,0,0,0,116.179,43.521Zm.588,2.881c.265,1.558.47,3.145.588,4.7a10.654,10.654,0,0,0-.882-2.44c-1.029-2.028-3.292-3.41-3.821-5.5a9.074,9.074,0,0,0,3.322,2.44Zm-4.585-4.35a10.9,10.9,0,0,1-2.146-6.29c1.235,1.176,2.616,1.793,4,3.586a7.319,7.319,0,0,1,1.675,5.438,29.426,29.426,0,0,1-2.175-2.5,26.572,26.572,0,0,1-2.469-3.645,29.48,29.48,0,0,0,3.233,5.026l.882,1.058A8.121,8.121,0,0,1,112.182,42.051Zm4.5,12.875a32.176,32.176,0,0,1-1.734-2.939,27.076,27.076,0,0,1-1.764-4.115,26.853,26.853,0,0,0,2.234,5.614c.206.412.441.823.676,1.235a8.133,8.133,0,0,1-2.528-3.292,9.9,9.9,0,0,1-.735-6.555c1.058,1.44,2.381,2.352,3.439,4.439A6.836,6.836,0,0,1,116.679,54.926Zm.441.265A5.548,5.548,0,0,0,117.5,53.9c.029.617.029,1.205,0,1.822A5.963,5.963,0,0,1,117.12,55.19ZM120,62.157c1.558-1.675,3.057-2.087,4.5-3.086a12.421,12.421,0,0,1-3.116,6.525,7.711,7.711,0,0,1-3.2,2.175c.558-.558,1.088-1.117,1.617-1.7a28.428,28.428,0,0,0,3.38-4.762,32.861,32.861,0,0,1-2.587,3.439,33.2,33.2,0,0,1-3.233,3.2A9.031,9.031,0,0,1,120,62.157Zm-3.086,5.585v.382c-.059.029-.088.088-.147.118A3.211,3.211,0,0,0,116.914,67.741Zm-1.734-.676c-.265-1.058-.47-2.116-.647-3.233a28.927,28.927,0,0,1-.353-4.38,29.651,29.651,0,0,0,.323,5.938c.059.441.147.911.235,1.352a7.932,7.932,0,0,1-1.205-3.733,11.47,11.47,0,0,1,1.176-6.555c.47,1.617,1.352,2.792,1.646,5.026A7.8,7.8,0,0,1,115.18,67.065Zm.794-.5c-.118.441-.235.882-.382,1.293-.059-.147-.088-.294-.147-.47A3.3,3.3,0,0,0,115.974,66.566Zm-.47,10.229a43.021,43.021,0,0,1-3.7,2.645,11.217,11.217,0,0,1,3.939-5.144c1.822-1.382,3.2-1.587,4.762-2.352a15.1,15.1,0,0,1-4.556,5.791,8.306,8.306,0,0,1-3.38,1.646c.617-.441,1.264-.911,1.881-1.411a35.535,35.535,0,0,0,4.262-4.086C117.737,74.855,116.679,75.825,115.5,76.795Zm-5.585-2.587a13.8,13.8,0,0,1,2.91-6.085c-.059,1.617.353,2.822-.029,5a9.356,9.356,0,0,1-2.616,5.144c.088-1.029.206-2.087.382-3.145a30.307,30.307,0,0,1,.97-4.2,34.378,34.378,0,0,0-1.44,5.7c-.059.441-.147.882-.176,1.293A7.678,7.678,0,0,1,109.918,74.208Zm1.029,3.821-.617.97v-.323A4.253,4.253,0,0,0,110.947,78.029Zm.147,2.352c.176-.118.382-.235.558-.353a9.726,9.726,0,0,0,4.7-2.146c1.969-1.411,4.35-4.85,5.526-7.613-1.646,1.822-3.939,1.852-5.879,3.263a12.632,12.632,0,0,0-1.881,1.617,48.366,48.366,0,0,0,2.352-5.761c.323-.265.617-.529.941-.823a9.575,9.575,0,0,0,4.527-2.851c1.529-1.528,2.851-4.644,3.38-7.378a5.362,5.362,0,0,0,.206.735,16.153,16.153,0,0,0,1.205,2.91c-1.764,2.116-3.41,5.056-3.468,7.7-.059,2.763.323,4.086,1.058,5.35.029.323.059.617.088.941a50.458,50.458,0,0,1-3.557,5.291,10.965,10.965,0,0,0,.764-1.793c.735-2.116.088-4.2,1.293-6.143-2.234,1.675-4.674,4.233-5.467,6.79s-.823,3.851-.529,5.144a5.417,5.417,0,0,0-.147.735,59.05,59.05,0,0,1-6.32,5.644,13.889,13.889,0,0,0,2.381-2.939c1.117-1.852.97-3.821,2.5-5.467a23.56,23.56,0,0,0-2.5,1.587,25.168,25.168,0,0,0,2.469-2.645c-2.028,1.411-4.086,1.205-6.232,2.234-.617.294-1.205.617-1.764.941C108.684,83.7,109.948,82.056,111.094,80.381Zm12.316,3.645A35.972,35.972,0,0,1,119,85.966a10.818,10.818,0,0,1,5.026-4.38c2.175-1.029,3.733-.97,5.526-1.47a14.891,14.891,0,0,1-5.761,4.909,9.252,9.252,0,0,1-3.909,1c.735-.323,1.5-.676,2.234-1.058a37.03,37.03,0,0,0,5.232-3.263A44.93,44.93,0,0,1,123.41,84.026Zm-6,.5c.235-1.029.5-2.028.852-3.086a30.656,30.656,0,0,1,1.617-4,30.3,30.3,0,0,0-2.352,5.409c-.147.412-.265.852-.382,1.264a7.226,7.226,0,0,1,.529-3.674,12.973,12.973,0,0,1,4-5.526c-.294,1.587,0,2.881-.735,4.968A8.47,8.47,0,0,1,117.414,84.526Zm.588.088c-.176.176-.353.382-.529.558a.553.553,0,0,1,.059-.235C117.679,84.819,117.855,84.731,118,84.614ZM94.575,102.691a79.727,79.727,0,0,0,14.168-7.848A12.134,12.134,0,0,0,114,94.137a10.745,10.745,0,0,0,1.529-.647c-.147.147-.294.323-.441.47a13.058,13.058,0,0,0-2.792,4.174,106.473,106.473,0,0,1-14.08,6.937,5.525,5.525,0,0,0-1.352-.823,6.127,6.127,0,0,0-2.322-.558A3.759,3.759,0,0,0,94.575,102.691Zm13.286-9.759A24.5,24.5,0,0,1,109.3,90.2a35.012,35.012,0,0,1,2.352-3.527,34.54,34.54,0,0,0-3.322,4.732c-.206.382-.441.735-.617,1.117a7.391,7.391,0,0,1,1.264-3.322,14.928,14.928,0,0,1,4.879-4.7c-.588,1.411-.617,2.616-1.7,4.468A9.7,9.7,0,0,1,107.861,92.932Zm.882-.059c-.323.235-.647.47-.97.676.029-.088.059-.147.088-.235A6.172,6.172,0,0,0,108.743,92.873Zm4.409,6.937a.108.108,0,0,0,.088-.029,12.5,12.5,0,0,0,5.379-.588,23.145,23.145,0,0,0,4.732-2.087l-.764.882a58.715,58.715,0,0,1-4.85,4.909c-1.646-1.5-3.939-1.117-6.143.206l-1.352.823a57.41,57.41,0,0,1-9.377,4.527,21.994,21.994,0,0,0-1.264-1.94A105.8,105.8,0,0,0,113.152,99.81Zm-.118-1.911q1.014-1.323,2.2-2.645c1.088-1.205,2.2-2.352,3.322-3.41a51.679,51.679,0,0,0-4.615,4.556c-.323.353-.617.735-.941,1.088a10.193,10.193,0,0,1,2.2-3.233A15.643,15.643,0,0,1,116.62,92.9a27.985,27.985,0,0,0,3.674-2.616,11.827,11.827,0,0,1,1.058-.529,33.6,33.6,0,0,1-3,4.35A14.305,14.305,0,0,1,113.034,97.9Zm.647-4.027a10.119,10.119,0,0,1-3.851.617q1.146-.353,2.293-.794a44.376,44.376,0,0,0,5.555-2.557,35.367,35.367,0,0,1-4.115,1.793q-2.293.838-4.5,1.411a12.362,12.362,0,0,1,5.585-3.586c2.263-.764,3.674-.588,5.438-.882A17.023,17.023,0,0,1,113.681,93.873Zm-5.056-8.906c2.058-1.029,3.351-1.029,4.938-1.558a18.535,18.535,0,0,1-5.791,4.615,9.238,9.238,0,0,1-3.5,1.058c.676-.323,1.382-.676,2.087-1.029a37.627,37.627,0,0,0,5.026-3.145c-1.176.764-2.41,1.529-3.733,2.234a42.008,42.008,0,0,1-4.086,1.911A14,14,0,0,1,108.625,84.966Zm-5.173-.705a16.179,16.179,0,0,1,4.409-5.056,27.183,27.183,0,0,1-1.5,4.439,11.147,11.147,0,0,1-3.851,4.262c.382-.911.794-1.822,1.264-2.763a35.322,35.322,0,0,1,2.087-3.615,39.1,39.1,0,0,0-2.969,4.879c-.206.382-.382.764-.558,1.146A7.258,7.258,0,0,1,103.452,84.261Zm-.794,5.7c.059-.059.147-.118.206-.176a2.04,2.04,0,0,1,.382-.147,11.441,11.441,0,0,0,4.85-1.352,14.625,14.625,0,0,0,2.41-1.529,10.772,10.772,0,0,0-1.734,2.2c-1.264,2.263-1.587,3.41-1.558,4.615-.088.176-.176.382-.265.558A80.24,80.24,0,0,1,94.4,101.074a4.424,4.424,0,0,0-2.175-3.351A90.012,90.012,0,0,0,102.658,89.963ZM90.724,76.736c2.175,1.029,1.911,4.115,1.264,6.614-.441-1.94-1.352-3.674-3.086-3.762-2.293-.118-3.586,2.587-4.262,5.2a7.227,7.227,0,0,0-1.617.735,21.326,21.326,0,0,1,.705-2.175C84.463,81.557,87.344,75.119,90.724,76.736ZM53.805,64.567a11.508,11.508,0,0,0-.97-.794,20.162,20.162,0,0,1-.911-6.055c0-12.022,10.317-21.781,23.016-21.781s23.016,9.788,23.016,21.781a20.022,20.022,0,0,1-.911,6.055,5.759,5.759,0,0,0-.97.794,19.745,19.745,0,0,0,.382-3.968c0-11.434-9.641-20.723-21.517-20.723S53.423,49.164,53.423,60.6A17.82,17.82,0,0,0,53.805,64.567Zm-3.968-9.553c0-12.551,11.258-22.78,25.073-22.78s25.073,10.229,25.073,22.78a20.779,20.779,0,0,1-1.764,8.377c.029,0,.029,0,.059-.029a3.962,3.962,0,0,0-.882.412,21.057,21.057,0,0,0,.882-6.026c0-12.228-10.494-22.163-23.4-22.163s-23.4,9.935-23.4,22.163a20.761,20.761,0,0,0,.882,6.026,7.431,7.431,0,0,0-.852-.412c.029,0,.029,0,.059.029A21.789,21.789,0,0,1,49.837,55.014Zm-1.646-1.352c0-13.668,11.993-24.809,26.719-24.809s26.719,11.14,26.719,24.809a23.088,23.088,0,0,1-2.058,9.524H99.6a3.381,3.381,0,0,0-.941.059h.029a21.016,21.016,0,0,0,1.675-8.23c0-12.728-11.434-23.133-25.426-23.133S49.513,42.257,49.513,55.014a20.909,20.909,0,0,0,1.675,8.23h.029a3.381,3.381,0,0,0-.941-.059h.029A22.139,22.139,0,0,1,48.191,53.662Zm-1.646-1.323c0-14.785,12.757-26.807,28.365-26.807s28.365,12.052,28.365,26.807a25.429,25.429,0,0,1-2.616,11.229c.029,0,.029.029.059.029l-.176-.088a5.3,5.3,0,0,0-.617-.235h.029a23.465,23.465,0,0,0,2.058-9.582c0-13.874-12.169-25.161-27.1-25.161s-27.1,11.317-27.1,25.161a23.362,23.362,0,0,0,2.058,9.583H49.9a2.656,2.656,0,0,0-.617.235.615.615,0,0,0-.176.118c.029,0,.029-.029.059-.029A25.746,25.746,0,0,1,46.545,52.339ZM74.91,40.669c11.493,0,20.84,8.965,20.84,19.959a18.98,18.98,0,0,1-.764,5.35A15.743,15.743,0,0,0,93.134,68.8c-3.116.97-5.085,5.291-5.967,8.083-2.675,2.146-4.2,5.908-4.909,9.142-3.175,2.322-5.291,6.584-7.378,6.908-2.058-.323-4.2-4.585-7.378-6.908-.705-3.233-2.2-7-4.909-9.142-.882-2.763-2.851-7.113-5.967-8.083a16.855,16.855,0,0,0-1.852-2.822,18.98,18.98,0,0,1-.764-5.35C54.07,49.635,63.446,40.669,74.91,40.669ZM96.4,76.119c-.441-1.94-1.352-3.674-3.086-3.762-1.793-.088-2.969,1.529-3.7,3.5a3.8,3.8,0,0,0-1.5.412c.029-.059.029-.118.059-.176.705-1.764,3.586-8.2,6.966-6.614C97.279,70.534,97.014,73.62,96.4,76.119Zm4.38-6.2c-.176-1.7-.764-3.322-2.234-3.557s-2.616.941-3.468,2.44a3.839,3.839,0,0,0-1.146-.147c1.058-1.852,3.968-6.173,6.5-4.585C102.158,65.155,101.6,67.8,100.777,69.917ZM40.2,47.548C40.2,29.794,55.8,15.273,74.91,15.273s34.744,14.491,34.744,32.275a30.833,30.833,0,0,1-7.672,20.194,6.706,6.706,0,0,0,.118-1.5v.088a30.4,30.4,0,0,0,4.938-16.666c0-17.225-14.433-31.3-32.128-31.3s-32.128,14.05-32.128,31.3A30.719,30.719,0,0,0,47.72,66.331v-.059a6.706,6.706,0,0,0,.118,1.5A31.094,31.094,0,0,1,40.2,47.548Zm7.613,18.077v-.059a29.9,29.9,0,0,1-4.556-15.932c0-16.99,14.227-30.864,31.687-30.864s31.687,13.874,31.687,30.864a30.242,30.242,0,0,1-4.556,15.932v.088a4.942,4.942,0,0,0-.265-.941v.029a28.133,28.133,0,0,0,3.586-13.756c0-16.108-13.668-29.247-30.452-29.247S44.487,34.879,44.487,50.987a28.133,28.133,0,0,0,3.586,13.756v-.029A2.5,2.5,0,0,0,47.809,65.625ZM44.9,50.987c0-15.873,13.492-28.836,30.011-28.836,16.549,0,30.011,12.963,30.011,28.836a27.675,27.675,0,0,1-3.41,13.316c.029.029.029.059.059.059a2.142,2.142,0,0,0-.617-.647c.029,0,.029.029.059.029a25.861,25.861,0,0,0,2.675-11.434c0-14.991-12.933-27.219-28.777-27.219S46.133,37.319,46.133,52.31a25.861,25.861,0,0,0,2.675,11.434c.029,0,.029-.029.059-.029a2.142,2.142,0,0,0-.617.647c.029-.029.029-.059.059-.088A27.561,27.561,0,0,1,44.9,50.987Zm6.408,15.344c-1.47.235-2.058,1.852-2.234,3.557-.823-2.087-1.411-4.732.382-5.849,2.528-1.587,5.438,2.763,6.5,4.585a3.082,3.082,0,0,0-1.146.147C53.923,67.271,52.776,66.1,51.307,66.331Zm5.2,6.026c-1.734.088-2.616,1.822-3.086,3.762-.617-2.5-.911-5.585,1.264-6.614,3.38-1.587,6.261,4.821,6.966,6.614.029.059.029.118.059.176a3.8,3.8,0,0,0-1.5-.412C59.478,73.914,58.3,72.268,56.509,72.356Zm4.409,7.231c-1.734.088-2.616,1.822-3.086,3.762-.647-2.5-.911-5.585,1.264-6.614,3.38-1.587,6.261,4.821,6.966,6.614a21.327,21.327,0,0,1,.705,2.175,7.785,7.785,0,0,0-1.587-.735C64.475,82.174,63.211,79.47,60.918,79.587Zm-7.525,25.161c2.234-1.029,7,.265,10.435.382,3.41.088,6.085-.558,8-2.5a11.578,11.578,0,0,0,1.205-1.44c-1.587,1.411-4.7,1.793-6.643,1.44-1.7-.323-5.791-2.058-7.055-1.382-.823.441-.735,1.617-.47,2.645-.647-.088-1.323-.147-1.969-.206-.323-.029-.647-.029-.97-.029-.118-2.587.764-4.644,1.881-5.32,1.852-1.146,6.232,1.352,8.524,1.911a7.681,7.681,0,0,0,6.32-.764A3.456,3.456,0,0,0,73.94,97.9a1.25,1.25,0,0,0,0-1.293,5.114,5.114,0,0,1-2.734-2.146c-.676-.97-1.528-3.086-2.675-4.7s-2.587-2.763-4.409-1.793c-1.5.823-1.411,2.792-.911,4.732-1.558-1.764-4.233-7.848.206-7.437,4.086.382,6.055,3.557,7.025,4.409s2.675,3.586,4.5,4.2c1.852-.617,3.557-3.351,4.5-4.2.97-.852,2.939-4.056,7.025-4.409,4.439-.412,1.764,5.673.206,7.437.5-1.911.588-3.909-.911-4.732-1.822-.97-3.263.176-4.409,1.793s-2,3.733-2.675,4.7a5.114,5.114,0,0,1-2.734,2.146,1.25,1.25,0,0,0,0,1.293,3.783,3.783,0,0,0,1.293,1.587,7.556,7.556,0,0,0,6.32.764c2.293-.558,6.672-3.057,8.524-1.911,1.117.676,2,2.734,1.881,5.32-.323,0-.647,0-.97.029-.647.059-1.323.118-1.969.206.235-1,.323-2.175-.47-2.645-1.264-.705-5.35,1.058-7.055,1.382-1.94.353-5.026-.029-6.643-1.44a14.208,14.208,0,0,0,1.205,1.44c1.911,1.94,4.586,2.587,8,2.5s8.172-1.382,10.435-.382c2.234,1.029,2.792,2.2,3.792,3.939h-.029c-.323.118-.676.235-1,.353h-.029c-.353.118-.676.235-1.029.353h0c-.029,0-.029,0-.059.029-.029,0-.059,0-.059.029-.294.088-.617.206-.911.294h0c-.029,0-.059,0-.059.029h-.029c-.029,0-.059.029-.088.029h-.029c-.029,0-.059,0-.059.029a2.026,2.026,0,0,0-.235.088c-.118.029-.206.059-.323.088-.059.029-.147.029-.206.059H96.1c-.206-.97-.382-1.911-1.117-2.322-1.822-1.088-7.055-.235-9.524-.088-2.469.118-5.879-.735-7.642-2.645a14.33,14.33,0,0,1-2.851-4.409,14.33,14.33,0,0,1-2.851,4.409c-1.764,1.94-5.173,2.763-7.642,2.645s-7.7-1-9.524.088c-.705.441-.882,1.352-1.117,2.322h0a.692.692,0,0,0-.235-.059l-.206-.059h0c-.029,0-.029,0-.059-.029h0c-.118-.029-.265-.088-.382-.118h0c-.029,0-.029,0-.059-.029-.029,0-.029,0-.059-.029-1.058-.323-2.116-.676-3.145-1.058C50.6,106.953,51.16,105.778,53.393,104.749Zm6.29-2.763c.882-.705,2.5.206,3.028.353a20.066,20.066,0,0,0,5.555,1.117,8.634,8.634,0,0,0,1.5-.147,11.466,11.466,0,0,1-5.908,1.146,34.84,34.84,0,0,1-4.292-.47C59.331,103.132,59.243,102.309,59.684,101.986Zm30.57,2a41.639,41.639,0,0,1-4.292.47,11.772,11.772,0,0,1-5.908-1.146,13.606,13.606,0,0,0,1.5.147,19.053,19.053,0,0,0,5.555-1.117c.529-.147,2.146-1.058,3.028-.353C90.577,102.309,90.489,103.132,90.254,103.984Zm5.2,6.232a76.181,76.181,0,0,1-20.517,2.675,77.21,77.21,0,0,1-20.517-2.675c.176-.97.441-1.911,1.47-2.175,2.322-.617,5.115-.029,7.466.176a12.624,12.624,0,0,0,7.231-1.264,12.284,12.284,0,0,0,4.35-4.968,12.562,12.562,0,0,0,4.38,4.968,12.707,12.707,0,0,0,7.231,1.264c2.352-.206,5.115-.794,7.466-.176C94.986,108.305,95.28,109.246,95.457,110.216ZM50.131,106.63a21.514,21.514,0,0,0-1.146,1.822,57.412,57.412,0,0,1-9.377-4.527l-1.352-.823c-2.2-1.323-4.5-1.7-6.143-.206-1.675-1.558-3.38-3.233-4.85-4.909l-.617-.705A17.165,17.165,0,0,0,29,98.106c1.47.382,6,2.557,8.26,2.734A109.672,109.672,0,0,0,50.131,106.63ZM33.053,93.785c.794,1,5.761,5.585,4.938,6.5s-7.319-2.028-8.642-2.44a32.657,32.657,0,0,1-3.263-1.176,9.263,9.263,0,0,0-1.881-1.675c1.058.029,2.293-.029,3.586.029.441.412.97.823,1.528,1.264a32.469,32.469,0,0,0,3.733,2.44A29.854,29.854,0,0,1,25.41,92.08,34.495,34.495,0,0,1,34.9,96.665,32.423,32.423,0,0,0,31.2,94.2c-.647-.353-1.264-.705-1.822-.941-.5-1.411-.823-2.792-1.235-3.792C29.261,89.728,31.465,91.786,33.053,93.785ZM20.56,18.653a17.158,17.158,0,0,1,6.408-4.938c-1.205,1.911-1.852,3.733-3.674,5.879a13.883,13.883,0,0,1-4.909,4.027A1.118,1.118,0,0,0,18,23.356c.97-1.323,2.028-2.645,3.145-3.909a48.3,48.3,0,0,1,3.586-3.7,42.493,42.493,0,0,0-4.909,4.879q-.97,1.1-1.852,2.2A16.317,16.317,0,0,1,20.56,18.653Zm-8.789,8.436c.735-1.176,2-1.822,2.851-1.47a1.221,1.221,0,0,1,.705,1.205,1.337,1.337,0,0,0-.676-1.558c-.029,0-.029,0-.059-.029.823-1.235,2.2-1.911,3.116-1.528s1.029,1.7.294,2.969c-.029,0-.029,0-.029-.029a2.085,2.085,0,0,0-1.94.441,1.828,1.828,0,0,1,1.617-.235c.852.353.941,1.587.206,2.763-.118.176-.235.353-.353.5-1.058.558-2.352,1.176-3.645,1.852a30.031,30.031,0,0,0,1.293-4.2,35.287,35.287,0,0,0-3.38,3.322c-.059-1.264-.206-2.469-.265-3.527A4.28,4.28,0,0,1,11.771,27.089ZM8.038,34.026c.735-2.675,2.058-5.732,2.969-6.555-.029,1.176.206,2.645.265,4.262-.441.529-.882,1.146-1.352,1.793a38.108,38.108,0,0,0-2.587,4.145,39.841,39.841,0,0,1,7.26-8.995,35.41,35.41,0,0,1-4.7,10.082,38.293,38.293,0,0,0,2.616-4.145,17.271,17.271,0,0,0,.97-1.969c1.646-.882,3.233-1.587,4.38-2.293-.265,1.088-2.528,3.733-4.732,5.791-.764.705-3.351,3.7-5.291,5.379a2.292,2.292,0,0,0-1.675-2.2C6.8,37.26,7.833,34.791,8.038,34.026ZM1.866,44.7c.147-1.264,1.029-2.263,2-2.234a1.464,1.464,0,0,1,1.235.823,1.481,1.481,0,0,0-1.352-1.117H3.688c.206-1.352,1.176-2.41,2.2-2.381s1.764,1.146,1.646,2.5H7.48a1.9,1.9,0,0,0-1.587,1.058A1.862,1.862,0,0,1,7.3,42.58c.97.029,1.617,1.088,1.47,2.322a3.122,3.122,0,0,1-.118.558c-.735.852-1.675,1.793-2.557,2.851a30.353,30.353,0,0,0-.735-4.086,32.4,32.4,0,0,0-1.646,4.027c-.647-1.088-1.352-2.087-1.911-2.969C1.836,45.079,1.836,44.9,1.866,44.7ZM1.6,52.016c-.558-2.587-.764-5.673-.265-6.7.5,1.029,1.44,2.234,2.234,3.615a16.176,16.176,0,0,0-.441,2.028,30.945,30.945,0,0,0-.5,4.5A31.484,31.484,0,0,1,5.246,45.2,29.8,29.8,0,0,1,5.54,55.543a30.963,30.963,0,0,0,.529-4.468,15.52,15.52,0,0,0,0-2.028c1.117-1.323,2.322-2.469,3.057-3.469.265,1.029-.617,4.115-1.764,6.643-.412.911-1.528,4.674-2.616,6.731a2.681,2.681,0,0,0-2.381-1.176C1.983,55.6,1.777,52.78,1.6,52.016Zm0,9.23a1.635,1.635,0,0,1,1.528.294,1.787,1.787,0,0,0-1.793-.5c-.029,0-.029,0-.059.029a2.113,2.113,0,0,1,.97-2.822,2.385,2.385,0,0,1,2.7,1.587H4.893A1.623,1.623,0,0,0,3.864,61.3a1.6,1.6,0,0,1,.97-1.146,2.151,2.151,0,0,1,2.469,1.5l.176.529c-.294,1-.735,2.146-1.088,3.351a35.042,35.042,0,0,0-2.557-3.292A26.38,26.38,0,0,0,4.158,66.3c-1.117-.735-2.234-1.323-3.145-1.911a2.606,2.606,0,0,1-.235-.5A1.909,1.909,0,0,1,1.6,61.245Zm2.263,9.024c-1.7-2.028-3.322-4.644-3.322-5.7.941.705,2.381,1.44,3.762,2.352.118.588.294,1.235.5,1.911a27.775,27.775,0,0,0,1.617,4.056,28.161,28.161,0,0,1-2.263-9.818,29.314,29.314,0,0,1,5.056,8.877,26.872,26.872,0,0,0-1.587-4.056,19.223,19.223,0,0,0-.941-1.764c.441-1.528,1.029-2.939,1.264-4.056.735.794,1.293,3.762,1.411,6.349.029,1,.823,5.144.617,7.2a2.96,2.96,0,0,0-2.41-.235C6.128,73.679,4.423,70.945,3.864,70.269ZM8.1,78.823a1.872,1.872,0,0,1,1.558-.235,1.973,1.973,0,0,0-1.911.118l-.029.029c-.911-.97-1-2.234-.206-2.851a2.647,2.647,0,0,1,3.2.558l-.029.029a1.412,1.412,0,0,0-.382,1.646,1.3,1.3,0,0,1,.47-1.323,2.433,2.433,0,0,1,2.939.558,2.2,2.2,0,0,1,.353.412c.118,1,.147,2.146.294,3.351a37.763,37.763,0,0,0-3.733-2.146A29,29,0,0,0,12.536,82.5c-1.352-.294-2.645-.5-3.762-.735a5.107,5.107,0,0,1-.441-.382C7.48,80.557,7.362,79.382,8.1,78.823Zm12.14,11.111c-2.116-.882-5.467-3.292-6.379-3.762-2.44-1.293-5.026-3.116-5.438-4.056,1.176.323,2.822.529,4.527.911.323.47.764,1,1.235,1.558A28.549,28.549,0,0,0,17.327,87.7a28.233,28.233,0,0,1-6.055-8.054A32.409,32.409,0,0,1,19.59,86a31.328,31.328,0,0,0-3.116-3.145c-.558-.47-1.088-.941-1.587-1.293-.176-1.528-.206-2.969-.412-4.027,1,.47,2.734,2.969,3.88,5.232.382.764,2.322,3.586,3.2,5.555a1.76,1.76,0,0,0-.941.529A1.424,1.424,0,0,0,20.237,89.934Zm1.911,1.852a1.8,1.8,0,0,1,1.5-.5,1.981,1.981,0,0,0-1.852.441l-.029.029c-1.088-.764-1.44-1.94-.794-2.675a2.706,2.706,0,0,1,3.263-.029l-.029.029a1.279,1.279,0,0,0-.029,1.617,1.24,1.24,0,0,1,.176-1.352,2.415,2.415,0,0,1,3,.029c.176.118.294.235.441.323.323.941.588,2.028,1,3.145a33.829,33.829,0,0,0-4.115-1.382,24.7,24.7,0,0,0,2.616,3.028c-1.382-.059-2.7,0-3.851-.029h0c-.147-.088-.323-.176-.5-.265C21.883,93.579,21.53,92.462,22.148,91.786ZM130.142,94.9q-2.513,1.014-3,4.5a28.656,28.656,0,0,1,12.522.617,7.82,7.82,0,0,0-4.5,1.793c-3.469,2.322-6.731,7.466-9.994,10.347-2.616,2.293-10.082,8.377-11.934,5.908-.735-1,1.675-2.44,4.644-3.586,2.851-1.117,5.82-2.41,5.056-3.292-.794-.882-3.615.147-5.82,1.47l-.823.5a82.527,82.527,0,0,1-82.715,0l-.823-.5c-2.2-1.323-5.026-2.322-5.82-1.47-.794.882,2.175,2.175,5.056,3.292,2.969,1.146,5.379,2.587,4.644,3.586-1.852,2.469-9.347-3.645-11.934-5.908-3.263-2.851-6.525-8-9.994-10.347a8.023,8.023,0,0,0-4.5-1.793A29.573,29.573,0,0,1,22.735,99.4q-.485-3.439-3-4.5c2.469-1.323,4.85.5,6.232,2.087l1.058,1.205a58.5,58.5,0,0,0,4.968,5.144c-1.969,2.087-3.762,4.38-5.614,6.555-.823.941-.323,2.616,1.5,3.38.617.265,2.587,1.146,4.439,1.881,2,.794,3.7,1.881,3.527,2.469-.118.353-1.264.529-2,.441.911.265,2.058.147,2.293-.323.382-.735-1.47-1.822-3.674-2.792-2.352-1-5.2-2.116-5.791-2.881a1.59,1.59,0,0,1-.088-2l5.585-6.437a3.472,3.472,0,0,1,2.087-1.146c2.087-.118,3.88,1.205,5.614,2.234,10.435,6.143,22.78,8.789,35.126,8.789s24.691-2.645,35.126-8.789c1.734-1.029,3.527-2.352,5.614-2.234a3.322,3.322,0,0,1,2.116,1.146l5.585,6.437a1.593,1.593,0,0,1-.088,2c-.588.764-3.469,1.852-5.791,2.881-2.2.97-4.056,2.058-3.674,2.792.235.441,1.382.558,2.293.323-.735.088-1.881-.088-2-.441-.206-.588,1.529-1.675,3.527-2.469,1.852-.735,3.792-1.617,4.439-1.881,1.822-.764,2.322-2.44,1.5-3.38-1.881-2.175-3.674-4.439-5.614-6.555A63.062,63.062,0,0,0,123,98.194l1.058-1.205C125.292,95.4,127.643,93.579,130.142,94.9Zm-9.906,1a22.448,22.448,0,0,1,5.026-.705c-.088.088-.206.147-.294.235-.029.029-.059.059-.088.059h0c-.029.029-.059.029-.088.059h0c-.206.176-.412.382-.588.558-.059.059-.088.118-.147.147h0l-.088.088a23.161,23.161,0,0,1-5.614,2.557,10.159,10.159,0,0,1-3.909.5c.823-.206,1.617-.441,2.469-.735a53.477,53.477,0,0,0,6.143-2.381,48.167,48.167,0,0,1-4.527,1.675c-1.646.529-3.233.941-4.791,1.293A18.357,18.357,0,0,1,120.236,95.9Zm-.97-2.322c1.47-1.734,1.94-3.557,3.821-5.085-.588.265-1.205.588-1.822.911.235-.206.441-.441.647-.647-2.234,1.205-4.468.676-6.849,1.411-.235.088-.47.147-.705.235,1.352-1.205,2.616-2.44,3.792-3.674.176-.059.382-.147.558-.206a11.58,11.58,0,0,0,5.438-1.235,10.034,10.034,0,0,0,1.5-.852,11.547,11.547,0,0,0-1.146,1.7,10.628,10.628,0,0,0-1.646,4.644C121.735,91.727,120.53,92.668,119.266,93.579Zm4.262-3.233c.441-.97.911-1.94,1.47-2.939a40.212,40.212,0,0,1,2.381-3.821,39.831,39.831,0,0,0-3.351,5.144c-.235.412-.441.794-.647,1.205a8.679,8.679,0,0,1,1.323-3.527,18.248,18.248,0,0,1,2.263-3c.617-.529,1.235-1.088,1.822-1.675a6.535,6.535,0,0,1,.794-.558c-.617,1.529-.676,2.763-1.793,4.732A11.941,11.941,0,0,1,123.528,90.346Zm6.614-2.822c2.2-1,3.557-.911,5.262-1.382a18.925,18.925,0,0,1-6.29,4.674,10.487,10.487,0,0,1-3.733.97c.735-.294,1.5-.647,2.234-1a41.761,41.761,0,0,0,5.438-3.116c-1.264.764-2.616,1.528-4.027,2.2a44.831,44.831,0,0,1-4.38,1.822A13.467,13.467,0,0,1,130.142,87.524ZM132.434,81a29.885,29.885,0,0,1,.647-3.057,32.745,32.745,0,0,1,1.293-4.056,35.077,35.077,0,0,0-1.881,5.467c-.118.412-.206.852-.294,1.264A7.521,7.521,0,0,1,132.523,77a14.036,14.036,0,0,1,3.38-5.791c-.176,1.558.118,2.763-.441,4.879A9.625,9.625,0,0,1,132.434,81Zm5.82-3.645c1.911-1.264,3.322-1.411,4.909-2.087a15.781,15.781,0,0,1-5,5.438,8.483,8.483,0,0,1-3.469,1.44c.647-.412,1.323-.823,1.969-1.293a37.535,37.535,0,0,0,4.556-3.792,32.079,32.079,0,0,1-3.41,2.7,39.814,39.814,0,0,1-3.88,2.41A11.356,11.356,0,0,1,138.254,77.353Zm-2.44-1.146c.059-.176.118-.382.176-.558.558-2.116-.088-4.056.911-6.055-1.94,1.881-4.027,4.644-4.644,7.2a9.781,9.781,0,0,0-.294,4.909,54.654,54.654,0,0,1-3.733,4.2,2.194,2.194,0,0,0,.206-.353c1.146-2,1.058-4,2.587-5.849-.323.206-.617.441-.941.676a19.18,19.18,0,0,0,1.205-1.617c-2.058,1.5-4.556,1.117-6.878,2.146a16.229,16.229,0,0,0-2.352,1.293,50.755,50.755,0,0,0,3.645-5.614c.323-.206.676-.382,1-.588a11.553,11.553,0,0,0,5.379-2.263c2.146-1.5,4.468-5.085,5.438-7.966v.235a8.8,8.8,0,0,0,1.205,4.732V70.8A56.934,56.934,0,0,1,135.815,76.207Zm3.116-6.29a24.755,24.755,0,0,1-.265-2.969,30.124,30.124,0,0,1,.118-4.027,29.58,29.58,0,0,0-.323,5.467c0,.412.029.823.059,1.235a7.121,7.121,0,0,1-.735-3.439,11.6,11.6,0,0,1,1.734-6.026c.265,1.5.941,2.587.97,4.644A7.4,7.4,0,0,1,138.931,69.917Zm1.146-11.493a13.9,13.9,0,0,0-2.616,7.29c-1.7,1.911-4.468,1.969-6.614,3.439a12.665,12.665,0,0,0-2.939,2.763,46.3,46.3,0,0,0,2.146-6.467c.382-.353.794-.735,1.176-1.117a11.858,11.858,0,0,0,4.968-3.557c1.822-2.028,3.086-6.143,3.116-9.2-1.176,2.293-4.115,3.057-5.879,5.056a11.748,11.748,0,0,0-2.44,4.027,44.971,44.971,0,0,0,.412-7.172c.265-.382.5-.794.764-1.205a10.48,10.48,0,0,0,3.615-4.233c1.176-2.234,1.5-6.408.941-9.318-.588,2.41-2.969,3.615-4.145,5.82a11.014,11.014,0,0,0-1.382,5.379,52.207,52.207,0,0,0-1.352-7.848c.206-.676.353-1.352.5-2.058a9.291,9.291,0,0,0,1.881-4.7,16.4,16.4,0,0,0-1.235-7.407,10.13,10.13,0,0,0,1.323,1.411,9.945,9.945,0,0,0,4.086,2.5c.412.323.823.617,1.264.911a49.022,49.022,0,0,1,3.145,8.2c-.176-.147-.353-.323-.529-.5a9.691,9.691,0,0,0-2.41-5.526c-1.293-1.587-3.2-2.293-4.145-4.086a14.34,14.34,0,0,0,2.792,7.143A19.5,19.5,0,0,0,138.2,39.7a13.473,13.473,0,0,0,1,7.172,14.6,14.6,0,0,0,1.382,2.293,13.326,13.326,0,0,0-.764,6.966,9.207,9.207,0,0,0,1.969,4.439c.029.059.029.088.059.147-.235,1.264-.529,2.5-.882,3.762v-.294C140.9,62.186,139.636,60.481,140.077,58.424Zm-5.556,1.558a37.567,37.567,0,0,1-3.38,3.733c-.265-1.969.764-4.35,2.41-6.29,1.617-1.94,3.322-2.557,4.909-3.792a11.955,11.955,0,0,1-2.851,7.113,9.721,9.721,0,0,1-3.5,2.675c.588-.617,1.146-1.293,1.675-1.969a30.318,30.318,0,0,0,3.38-5.35A37.856,37.856,0,0,1,134.521,59.981Zm-3.233-9.171a7.591,7.591,0,0,0,.294,1.235c-.059.088-.147.206-.206.294C131.347,51.839,131.317,51.31,131.288,50.81Zm2.881-3.233a30.968,30.968,0,0,1-2.234,4.145c-.617-1.822-.147-4.321.882-6.408,1.058-2.116,2.381-3,3.527-4.468a12.369,12.369,0,0,1-1.117,7.29,8.568,8.568,0,0,1-2.528,3.145c.382-.705.735-1.411,1.058-2.175a29.988,29.988,0,0,0,1.911-5.673A26.3,26.3,0,0,1,134.169,47.577Zm10.523,21.046a8.416,8.416,0,0,1-3.116,1.969c.558-.5,1.088-1.029,1.617-1.558a30.551,30.551,0,0,0,3.527-4.35,29.067,29.067,0,0,1-2.7,3.145,33.47,33.47,0,0,1-3.263,2.939,9.4,9.4,0,0,1,3-5.291c1.587-1.528,2.969-1.881,4.38-2.822A12.563,12.563,0,0,1,144.692,68.623Z" transform="translate(-1354.895 -799.9)"/>
    <path id="Path_411" data-name="Path 411" class="cls-1" d="M158.549,379.311l-2.028,2.969.353-3.586-2.2-.794-1.969,5.379,1.382.5,1.5-4.086-.47,4.468,1.235.47L158.9,380.9l-1.5,4.115,1.352.5,1.969-5.409Z" transform="translate(-1462.784 -1067.143)"/>
    <path id="Path_412" data-name="Path 412" class="cls-1" d="M277.64,394.135,276.2,400.1l1.793-.235.176-.97,2-.235.382.911,1.852-.235-2.851-5.438Zm.735,3.468.382-2.116.882,1.969Z" transform="translate(-1549.982 -1078.44)"/>
    <path id="Path_413" data-name="Path 413" class="cls-1" d="M178.769,387.2l-3.468,5.056,1.764.441.5-.852,1.969.5.059,1,1.793.441-.705-6.085Zm-.529,3.5,1.117-1.852.118,2.146Z" transform="translate(-1478.741 -1073.71)"/>
    <path id="Path_414" data-name="Path 414" class="cls-1" d="M200,392.329a.768.768,0,0,1,.47-.059.839.839,0,0,1,.558.265.878.878,0,0,1,.176.588l1.675.176a1.765,1.765,0,0,0-.47-1.382,2.952,2.952,0,0,0-1.587-.676,3.911,3.911,0,0,0-1.44,0,1.6,1.6,0,0,0-1.235,1.293,1.432,1.432,0,0,0,.323,1.176,4.149,4.149,0,0,0,1.528.941,2.321,2.321,0,0,1,.852.47.593.593,0,0,1,.147.411.577.577,0,0,1-.265.382,1.076,1.076,0,0,1-1.352-.382,1.339,1.339,0,0,1-.118-.647l-1.675-.147a2.275,2.275,0,0,0,.412,1.529,2.905,2.905,0,0,0,1.911.882,3.183,3.183,0,0,0,1.411-.029,2.014,2.014,0,0,0,.97-.558,1.883,1.883,0,0,0,.47-.97,1.5,1.5,0,0,0-.088-.882,1.8,1.8,0,0,0-.617-.735,6.889,6.889,0,0,0-1.558-.764,1.813,1.813,0,0,1-.559-.294.474.474,0,0,1-.088-.264A.3.3,0,0,1,200,392.329Z" transform="translate(-1494.476 -1076.516)"/>
    <path id="Path_415" data-name="Path 415" class="cls-1" d="M261.238,399.571a1.792,1.792,0,0,0-.265-.353l-.294-.294a1.831,1.831,0,0,0-.47-.206,2.089,2.089,0,0,0,.617-.235,1.453,1.453,0,0,0,.529-.588,1.79,1.79,0,0,0,.176-.823,1.534,1.534,0,0,0-.294-.911,1.438,1.438,0,0,0-.735-.5,3.879,3.879,0,0,0-1.264-.088l-2.939.118.206,5.732,1.764-.059-.088-2.322h.147a.829.829,0,0,1,.441.118,1.577,1.577,0,0,1,.353.441l1,1.734,2-.059Zm-1.587-1.969a.448.448,0,0,1-.294.176,2.344,2.344,0,0,1-.47.088l-.735.029-.029-1.176.764-.029a1.255,1.255,0,0,1,.676.118.616.616,0,0,1,.206.411A.5.5,0,0,1,259.651,397.6Z" transform="translate(-1535.932 -1079.614)"/>
    <path id="Path_416" data-name="Path 416" class="cls-1" d="M222.033,393.629l-1.382,1.793-.911-2.087-1.94-.235,1.793,3.586-.294,2.381,1.764.235.294-2.41,2.616-3.028Z" transform="translate(-1508.749 -1077.875)"/>
    <path id="Path_417" data-name="Path 417" class="cls-1" d="M303.119,386.27l-.705,6.055-2.881-3.028,1.587-2.557-2.293.5-1.352,2.5-.441-2.116L295.3,388l1.205,5.614,1.734-.382-.294-1.382.705-1.117,1.676,2.058,2.146-.441v.029l1.764-.441.029-1,1.969-.5.5.852,1.793-.441-3.469-5.056Zm1.176,3.38.118-2.146,1.117,1.852Z" transform="translate(-1563.468 -1072.721)"/>
    <path id="Path_418" data-name="Path 418" class="cls-1" d="M236.152,395.4l-2.352,5.673,1.822.059.323-.941,2.028.059.235.97,1.852.059-1.969-5.82Zm.176,3.557.705-2.028.558,2.087Z" transform="translate(-1520.045 -1079.499)"/>
    <path id="Path_419" data-name="Path 419" class="cls-1" d="M123.432,366.468a1.721,1.721,0,0,0,.235-1.382,2.049,2.049,0,0,0-1.029-1.117l-2.557-1.47-2.881,4.968,1.528.882,1.058-1.852.823.47a2.407,2.407,0,0,0,1.617.382A1.614,1.614,0,0,0,123.432,366.468Zm-1.5-.823a.531.531,0,0,1-.412.294,1.093,1.093,0,0,1-.705-.206l-.382-.206.647-1.117.441.265c.294.176.441.323.5.5A.95.95,0,0,1,121.932,365.645Z" transform="translate(-1437.719 -1056.27)"/>
    <path id="Path_420" data-name="Path 420" class="cls-1" d="M139.815,375.709l.5-1.058-2.5-1.146.382-.823,2.7,1.234.5-1.088L137.11,370.8,134.7,376l4.38,2.058.529-1.176-2.763-1.293.47-1.029Z" transform="translate(-1450.075 -1062.13)"/>
    <path id="Path_421" data-name="Path 421" class="cls-1" d="M337.256,378.4l-5.056,1.852.5,1.323,1.675-.617,1.5,4.056,1.646-.617-1.47-4.056,1.7-.617Z" transform="translate(-1589.522 -1067.496)"/>
    <path id="Path_422" data-name="Path 422" class="cls-1" d="M353.7,375.023l.47,6.114,1.646-.764-.147-.97,1.822-.852.647.735,1.675-.794-4.38-4.292Zm1.793,3.086-.294-2.146,1.44,1.587Z" transform="translate(-1604.702 -1064.531)"/>
    <path id="Path_423" data-name="Path 423" class="cls-1" d="M370.98,363.035l1.44,2.851-3.351-1.852-1.47.735,2.587,5.115,1.5-.764-1.44-2.792,3.351,1.822,1.5-.764-2.616-5.085Z" transform="translate(-1614.516 -1056.129)"/>
  </g>
</svg>
