<svg id="Persetujuan_Usulan" data-name="Persetujuan Usulan" xmlns="http://www.w3.org/2000/svg" viewBox="-2085 -822.569 72.266 100">
  <defs>
    <style>
      .cls-1 {
        fill: #D5702D;
      }
    </style>
  </defs>
  <path id="Path_347" data-name="Path 347" class="cls-1" d="M176.9,260H133.93a2.93,2.93,0,1,0,0,5.859H176.9a2.93,2.93,0,0,0,0-5.859Z" transform="translate(-2204.281 -1031.788)"/>
  <path id="Path_348" data-name="Path 348" class="cls-1" d="M293.026,370.678a2.37,2.37,0,0,1-3.269-.767l-1.75-2.832a2.93,2.93,0,0,0-5.127.259l-5.347,11a2.93,2.93,0,0,0,5.27,2.562l3.129-6.434a8.231,8.231,0,0,0,10.19,1.188,2.93,2.93,0,1,0-3.1-4.975Z" transform="translate(-2321.956 -1116.836)"/>
  <path id="Path_349" data-name="Path 349" class="cls-1" d="M149.555,320H133.93a2.93,2.93,0,1,0,0,5.859h15.625a2.93,2.93,0,0,0,0-5.859Z" transform="translate(-2204.281 -1080.069)"/>
  <path id="Path_350" data-name="Path 350" class="cls-1" d="M140.336,0H84.9a2.929,2.929,0,0,0-2.071.858L71.858,11.825A2.93,2.93,0,0,0,71,13.9V97.07A2.93,2.93,0,0,0,73.93,100h66.406a2.93,2.93,0,0,0,2.93-2.93V2.93A2.93,2.93,0,0,0,140.336,0Zm-2.93,94.141H76.859V15.11L86.11,5.859h51.3Z" transform="translate(-2156 -822.569)"/>
  <path id="Path_351" data-name="Path 351" class="cls-1" d="M273.93,81.484h15.625a2.93,2.93,0,0,0,2.93-2.93V62.93a2.93,2.93,0,0,0-2.93-2.93H273.93A2.93,2.93,0,0,0,271,62.93V78.555A2.93,2.93,0,0,0,273.93,81.484Zm2.93-15.625h9.766v9.766h-9.766Z" transform="translate(-2316.938 -870.85)"/>
  <path id="Path_352" data-name="Path 352" class="cls-1" d="M176.9,200H133.93a2.93,2.93,0,1,0,0,5.859H176.9a2.93,2.93,0,0,0,0-5.859Z" transform="translate(-2204.281 -983.507)"/>
</svg>
